G04 #@! TF.GenerationSoftware,KiCad,Pcbnew,(6.0.11-0)*
G04 #@! TF.CreationDate,2023-03-27T18:46:34+02:00*
G04 #@! TF.ProjectId,Moog-Filter-Panel,4d6f6f67-2d46-4696-9c74-65722d50616e,rev?*
G04 #@! TF.SameCoordinates,Original*
G04 #@! TF.FileFunction,Profile,NP*
%FSLAX46Y46*%
G04 Gerber Fmt 4.6, Leading zero omitted, Abs format (unit mm)*
G04 Created by KiCad (PCBNEW (6.0.11-0)) date 2023-03-27 18:46:34*
%MOMM*%
%LPD*%
G01*
G04 APERTURE LIST*
G04 #@! TA.AperFunction,Profile*
%ADD10C,0.200000*%
G04 #@! TD*
G04 #@! TA.AperFunction,Profile*
%ADD11C,0.100000*%
G04 #@! TD*
G04 APERTURE END LIST*
D10*
X156800000Y-148050000D02*
X116500000Y-148050000D01*
D11*
X130784713Y-51000000D02*
G75*
G03*
X130784713Y-51000000I-3484713J0D01*
G01*
X140134713Y-70450000D02*
G75*
G03*
X140134713Y-70450000I-3484713J0D01*
G01*
X150550000Y-109800000D02*
G75*
G03*
X150550000Y-109800000I-2912902J0D01*
G01*
D10*
X122175000Y-21000004D02*
G75*
G03*
X121169003Y-21667000I-60500J-1000896D01*
G01*
X121168999Y-21667000D02*
G75*
G03*
X121168999Y-23633000I2781001J-983000D01*
G01*
D11*
X139500000Y-125500000D02*
G75*
G03*
X139500000Y-125500000I-2912902J0D01*
G01*
D10*
X122075001Y-143400023D02*
G75*
G03*
X121169003Y-144067000I36699J-998677D01*
G01*
X116500000Y-19650000D02*
X156800000Y-19650000D01*
D11*
X128412902Y-125450000D02*
G75*
G03*
X128412902Y-125450000I-2912902J0D01*
G01*
D10*
X126731001Y-146033000D02*
G75*
G03*
X126731001Y-144067000I-2781001J983000D01*
G01*
X126731001Y-23633000D02*
G75*
G03*
X126731001Y-21667000I-2781001J983000D01*
G01*
X122112000Y-146700000D02*
X125788000Y-146700000D01*
X125787997Y-24299944D02*
G75*
G03*
X126730997Y-23633000I203J999844D01*
G01*
X125788000Y-21000000D02*
X122175000Y-21000000D01*
X122112000Y-24300000D02*
X125788000Y-24300000D01*
D11*
X149384713Y-89750000D02*
G75*
G03*
X149384713Y-89750000I-3484713J0D01*
G01*
X130784713Y-89500000D02*
G75*
G03*
X130784713Y-89500000I-3484713J0D01*
G01*
X139550000Y-109800000D02*
G75*
G03*
X139550000Y-109800000I-2912902J0D01*
G01*
D10*
X116500000Y-148050000D02*
X116500000Y-19650000D01*
X126731024Y-21666991D02*
G75*
G03*
X125787997Y-21000000I-942924J-333009D01*
G01*
X125787997Y-146699944D02*
G75*
G03*
X126730997Y-146033000I203J999844D01*
G01*
D11*
X150500000Y-125500000D02*
G75*
G03*
X150500000Y-125500000I-2912902J0D01*
G01*
D10*
X125787997Y-143400000D02*
X122075000Y-143400000D01*
X121169039Y-146032987D02*
G75*
G03*
X122112003Y-146700000I942861J332887D01*
G01*
X156800000Y-19650000D02*
X156800000Y-148050000D01*
X126731024Y-144066991D02*
G75*
G03*
X125787997Y-143400000I-942924J-333009D01*
G01*
D11*
X128450000Y-109800000D02*
G75*
G03*
X128450000Y-109800000I-2912902J0D01*
G01*
D10*
X121169039Y-23632987D02*
G75*
G03*
X122112003Y-24300000I942861J332887D01*
G01*
D11*
X149434713Y-51000000D02*
G75*
G03*
X149434713Y-51000000I-3484713J0D01*
G01*
D10*
X121168999Y-144067000D02*
G75*
G03*
X121168999Y-146033000I2781001J-983000D01*
G01*
M02*
