G04 #@! TF.GenerationSoftware,KiCad,Pcbnew,(6.0.11-0)*
G04 #@! TF.CreationDate,2023-03-27T18:46:33+02:00*
G04 #@! TF.ProjectId,Moog-Filter-Panel,4d6f6f67-2d46-4696-9c74-65722d50616e,rev?*
G04 #@! TF.SameCoordinates,Original*
G04 #@! TF.FileFunction,Legend,Top*
G04 #@! TF.FilePolarity,Positive*
%FSLAX46Y46*%
G04 Gerber Fmt 4.6, Leading zero omitted, Abs format (unit mm)*
G04 Created by KiCad (PCBNEW (6.0.11-0)) date 2023-03-27 18:46:33*
%MOMM*%
%LPD*%
G01*
G04 APERTURE LIST*
%ADD10C,0.300000*%
%ADD11C,0.500000*%
%ADD12C,0.375000*%
%ADD13C,0.250000*%
G04 APERTURE END LIST*
D10*
X156200000Y-141000000D02*
X156100000Y-26750000D01*
X117200000Y-141000000D02*
X156200000Y-141000000D01*
X156100000Y-26750000D02*
X150200000Y-26750000D01*
X117250000Y-26750000D02*
X117200000Y-141000000D01*
X123750000Y-26750000D02*
X117250000Y-26750000D01*
D11*
X143574598Y-121487500D02*
X151599598Y-121487500D01*
X151599598Y-121487500D02*
X151599598Y-129512500D01*
X151599598Y-129512500D02*
X143574598Y-129512500D01*
X143574598Y-129512500D02*
X143574598Y-121487500D01*
D12*
X124135714Y-115885714D02*
X124064285Y-115957142D01*
X123850000Y-116028571D01*
X123707142Y-116028571D01*
X123492857Y-115957142D01*
X123350000Y-115814285D01*
X123278571Y-115671428D01*
X123207142Y-115385714D01*
X123207142Y-115171428D01*
X123278571Y-114885714D01*
X123350000Y-114742857D01*
X123492857Y-114600000D01*
X123707142Y-114528571D01*
X123850000Y-114528571D01*
X124064285Y-114600000D01*
X124135714Y-114671428D01*
X124564285Y-114528571D02*
X125064285Y-116028571D01*
X125564285Y-114528571D01*
X127992857Y-116028571D02*
X127135714Y-116028571D01*
X127564285Y-116028571D02*
X127564285Y-114528571D01*
X127421428Y-114742857D01*
X127278571Y-114885714D01*
X127135714Y-114957142D01*
X124473809Y-27854761D02*
X124473809Y-25854761D01*
X125140476Y-27283333D01*
X125807142Y-25854761D01*
X125807142Y-27854761D01*
X126759523Y-27854761D02*
X126759523Y-25854761D01*
X127711904Y-27854761D02*
X127711904Y-25854761D01*
X128854761Y-27854761D01*
X128854761Y-25854761D01*
X129807142Y-27854761D02*
X129807142Y-25854761D01*
X130759523Y-27854761D02*
X130759523Y-25854761D01*
X131426190Y-27283333D01*
X132092857Y-25854761D01*
X132092857Y-27854761D01*
X133426190Y-25854761D02*
X133807142Y-25854761D01*
X133997619Y-25950000D01*
X134188095Y-26140476D01*
X134283333Y-26521428D01*
X134283333Y-27188095D01*
X134188095Y-27569047D01*
X133997619Y-27759523D01*
X133807142Y-27854761D01*
X133426190Y-27854761D01*
X133235714Y-27759523D01*
X133045238Y-27569047D01*
X132950000Y-27188095D01*
X132950000Y-26521428D01*
X133045238Y-26140476D01*
X133235714Y-25950000D01*
X133426190Y-25854761D01*
X135521428Y-25854761D02*
X135902380Y-25854761D01*
X136092857Y-25950000D01*
X136283333Y-26140476D01*
X136378571Y-26521428D01*
X136378571Y-27188095D01*
X136283333Y-27569047D01*
X136092857Y-27759523D01*
X135902380Y-27854761D01*
X135521428Y-27854761D01*
X135330952Y-27759523D01*
X135140476Y-27569047D01*
X135045238Y-27188095D01*
X135045238Y-26521428D01*
X135140476Y-26140476D01*
X135330952Y-25950000D01*
X135521428Y-25854761D01*
X138283333Y-25950000D02*
X138092857Y-25854761D01*
X137807142Y-25854761D01*
X137521428Y-25950000D01*
X137330952Y-26140476D01*
X137235714Y-26330952D01*
X137140476Y-26711904D01*
X137140476Y-26997619D01*
X137235714Y-27378571D01*
X137330952Y-27569047D01*
X137521428Y-27759523D01*
X137807142Y-27854761D01*
X137997619Y-27854761D01*
X138283333Y-27759523D01*
X138378571Y-27664285D01*
X138378571Y-26997619D01*
X137997619Y-26997619D01*
X141426190Y-26807142D02*
X140759523Y-26807142D01*
X140759523Y-27854761D02*
X140759523Y-25854761D01*
X141711904Y-25854761D01*
X142473809Y-27854761D02*
X142473809Y-25854761D01*
X144378571Y-27854761D02*
X143426190Y-27854761D01*
X143426190Y-25854761D01*
X144759523Y-25854761D02*
X145902380Y-25854761D01*
X145330952Y-27854761D02*
X145330952Y-25854761D01*
X146569047Y-26807142D02*
X147235714Y-26807142D01*
X147521428Y-27854761D02*
X146569047Y-27854761D01*
X146569047Y-25854761D01*
X147521428Y-25854761D01*
X149521428Y-27854761D02*
X148854761Y-26902380D01*
X148378571Y-27854761D02*
X148378571Y-25854761D01*
X149140476Y-25854761D01*
X149330952Y-25950000D01*
X149426190Y-26045238D01*
X149521428Y-26235714D01*
X149521428Y-26521428D01*
X149426190Y-26711904D01*
X149330952Y-26807142D01*
X149140476Y-26902380D01*
X148378571Y-26902380D01*
X132485714Y-76885714D02*
X132414285Y-76957142D01*
X132200000Y-77028571D01*
X132057142Y-77028571D01*
X131842857Y-76957142D01*
X131700000Y-76814285D01*
X131628571Y-76671428D01*
X131557142Y-76385714D01*
X131557142Y-76171428D01*
X131628571Y-75885714D01*
X131700000Y-75742857D01*
X131842857Y-75600000D01*
X132057142Y-75528571D01*
X132200000Y-75528571D01*
X132414285Y-75600000D01*
X132485714Y-75671428D01*
X132914285Y-75528571D02*
X133414285Y-77028571D01*
X133914285Y-75528571D01*
X136271428Y-77028571D02*
X135557142Y-77028571D01*
X135557142Y-75528571D01*
X136771428Y-76242857D02*
X137271428Y-76242857D01*
X137485714Y-77028571D02*
X136771428Y-77028571D01*
X136771428Y-75528571D01*
X137485714Y-75528571D01*
X137914285Y-75528571D02*
X138414285Y-77028571D01*
X138914285Y-75528571D01*
X139414285Y-76242857D02*
X139914285Y-76242857D01*
X140128571Y-77028571D02*
X139414285Y-77028571D01*
X139414285Y-75528571D01*
X140128571Y-75528571D01*
X141485714Y-77028571D02*
X140771428Y-77028571D01*
X140771428Y-75528571D01*
X140792857Y-57728571D02*
X140292857Y-57014285D01*
X139935714Y-57728571D02*
X139935714Y-56228571D01*
X140507142Y-56228571D01*
X140650000Y-56300000D01*
X140721428Y-56371428D01*
X140792857Y-56514285D01*
X140792857Y-56728571D01*
X140721428Y-56871428D01*
X140650000Y-56942857D01*
X140507142Y-57014285D01*
X139935714Y-57014285D01*
X141435714Y-56942857D02*
X141935714Y-56942857D01*
X142150000Y-57728571D02*
X141435714Y-57728571D01*
X141435714Y-56228571D01*
X142150000Y-56228571D01*
X142721428Y-57657142D02*
X142935714Y-57728571D01*
X143292857Y-57728571D01*
X143435714Y-57657142D01*
X143507142Y-57585714D01*
X143578571Y-57442857D01*
X143578571Y-57300000D01*
X143507142Y-57157142D01*
X143435714Y-57085714D01*
X143292857Y-57014285D01*
X143007142Y-56942857D01*
X142864285Y-56871428D01*
X142792857Y-56800000D01*
X142721428Y-56657142D01*
X142721428Y-56514285D01*
X142792857Y-56371428D01*
X142864285Y-56300000D01*
X143007142Y-56228571D01*
X143364285Y-56228571D01*
X143578571Y-56300000D01*
X144507142Y-56228571D02*
X144792857Y-56228571D01*
X144935714Y-56300000D01*
X145078571Y-56442857D01*
X145150000Y-56728571D01*
X145150000Y-57228571D01*
X145078571Y-57514285D01*
X144935714Y-57657142D01*
X144792857Y-57728571D01*
X144507142Y-57728571D01*
X144364285Y-57657142D01*
X144221428Y-57514285D01*
X144150000Y-57228571D01*
X144150000Y-56728571D01*
X144221428Y-56442857D01*
X144364285Y-56300000D01*
X144507142Y-56228571D01*
X145792857Y-57728571D02*
X145792857Y-56228571D01*
X146650000Y-57728571D01*
X146650000Y-56228571D01*
X147292857Y-57300000D02*
X148007142Y-57300000D01*
X147150000Y-57728571D02*
X147650000Y-56228571D01*
X148150000Y-57728571D01*
X148650000Y-57728571D02*
X148650000Y-56228571D01*
X149507142Y-57728571D01*
X149507142Y-56228571D01*
X151078571Y-57585714D02*
X151007142Y-57657142D01*
X150792857Y-57728571D01*
X150650000Y-57728571D01*
X150435714Y-57657142D01*
X150292857Y-57514285D01*
X150221428Y-57371428D01*
X150150000Y-57085714D01*
X150150000Y-56871428D01*
X150221428Y-56585714D01*
X150292857Y-56442857D01*
X150435714Y-56300000D01*
X150650000Y-56228571D01*
X150792857Y-56228571D01*
X151007142Y-56300000D01*
X151078571Y-56371428D01*
X151721428Y-56942857D02*
X152221428Y-56942857D01*
X152435714Y-57728571D02*
X151721428Y-57728571D01*
X151721428Y-56228571D01*
X152435714Y-56228571D01*
X146285714Y-115935714D02*
X146214285Y-116007142D01*
X146000000Y-116078571D01*
X145857142Y-116078571D01*
X145642857Y-116007142D01*
X145500000Y-115864285D01*
X145428571Y-115721428D01*
X145357142Y-115435714D01*
X145357142Y-115221428D01*
X145428571Y-114935714D01*
X145500000Y-114792857D01*
X145642857Y-114650000D01*
X145857142Y-114578571D01*
X146000000Y-114578571D01*
X146214285Y-114650000D01*
X146285714Y-114721428D01*
X146714285Y-114578571D02*
X147214285Y-116078571D01*
X147714285Y-114578571D01*
X149214285Y-114578571D02*
X150142857Y-114578571D01*
X149642857Y-115150000D01*
X149857142Y-115150000D01*
X150000000Y-115221428D01*
X150071428Y-115292857D01*
X150142857Y-115435714D01*
X150142857Y-115792857D01*
X150071428Y-115935714D01*
X150000000Y-116007142D01*
X149857142Y-116078571D01*
X149428571Y-116078571D01*
X149285714Y-116007142D01*
X149214285Y-115935714D01*
X123457142Y-57985714D02*
X123385714Y-58057142D01*
X123171428Y-58128571D01*
X123028571Y-58128571D01*
X122814285Y-58057142D01*
X122671428Y-57914285D01*
X122600000Y-57771428D01*
X122528571Y-57485714D01*
X122528571Y-57271428D01*
X122600000Y-56985714D01*
X122671428Y-56842857D01*
X122814285Y-56700000D01*
X123028571Y-56628571D01*
X123171428Y-56628571D01*
X123385714Y-56700000D01*
X123457142Y-56771428D01*
X124100000Y-56628571D02*
X124100000Y-57842857D01*
X124171428Y-57985714D01*
X124242857Y-58057142D01*
X124385714Y-58128571D01*
X124671428Y-58128571D01*
X124814285Y-58057142D01*
X124885714Y-57985714D01*
X124957142Y-57842857D01*
X124957142Y-56628571D01*
X125457142Y-56628571D02*
X126314285Y-56628571D01*
X125885714Y-58128571D02*
X125885714Y-56628571D01*
X126814285Y-57557142D02*
X127957142Y-57557142D01*
X128957142Y-56628571D02*
X129242857Y-56628571D01*
X129385714Y-56700000D01*
X129528571Y-56842857D01*
X129600000Y-57128571D01*
X129600000Y-57628571D01*
X129528571Y-57914285D01*
X129385714Y-58057142D01*
X129242857Y-58128571D01*
X128957142Y-58128571D01*
X128814285Y-58057142D01*
X128671428Y-57914285D01*
X128600000Y-57628571D01*
X128600000Y-57128571D01*
X128671428Y-56842857D01*
X128814285Y-56700000D01*
X128957142Y-56628571D01*
X130742857Y-57342857D02*
X130242857Y-57342857D01*
X130242857Y-58128571D02*
X130242857Y-56628571D01*
X130957142Y-56628571D01*
X132028571Y-57342857D02*
X131528571Y-57342857D01*
X131528571Y-58128571D02*
X131528571Y-56628571D01*
X132242857Y-56628571D01*
X134478571Y-131728571D02*
X134478571Y-130228571D01*
X135192857Y-131728571D02*
X135192857Y-130228571D01*
X136050000Y-131728571D01*
X136050000Y-130228571D01*
X137835714Y-130371428D02*
X137907142Y-130300000D01*
X138050000Y-130228571D01*
X138407142Y-130228571D01*
X138550000Y-130300000D01*
X138621428Y-130371428D01*
X138692857Y-130514285D01*
X138692857Y-130657142D01*
X138621428Y-130871428D01*
X137764285Y-131728571D01*
X138692857Y-131728571D01*
X121392857Y-96678571D02*
X121392857Y-95178571D01*
X122107142Y-96678571D02*
X122107142Y-95178571D01*
X122964285Y-96678571D01*
X122964285Y-95178571D01*
X125607142Y-96678571D02*
X124750000Y-96678571D01*
X125178571Y-96678571D02*
X125178571Y-95178571D01*
X125035714Y-95392857D01*
X124892857Y-95535714D01*
X124750000Y-95607142D01*
X128107142Y-96678571D02*
X127392857Y-96678571D01*
X127392857Y-95178571D01*
X128607142Y-95892857D02*
X129107142Y-95892857D01*
X129321428Y-96678571D02*
X128607142Y-96678571D01*
X128607142Y-95178571D01*
X129321428Y-95178571D01*
X129750000Y-95178571D02*
X130250000Y-96678571D01*
X130750000Y-95178571D01*
X131250000Y-95892857D02*
X131750000Y-95892857D01*
X131964285Y-96678571D02*
X131250000Y-96678571D01*
X131250000Y-95178571D01*
X131964285Y-95178571D01*
X133321428Y-96678571D02*
X132607142Y-96678571D01*
X132607142Y-95178571D01*
X135185714Y-115935714D02*
X135114285Y-116007142D01*
X134900000Y-116078571D01*
X134757142Y-116078571D01*
X134542857Y-116007142D01*
X134400000Y-115864285D01*
X134328571Y-115721428D01*
X134257142Y-115435714D01*
X134257142Y-115221428D01*
X134328571Y-114935714D01*
X134400000Y-114792857D01*
X134542857Y-114650000D01*
X134757142Y-114578571D01*
X134900000Y-114578571D01*
X135114285Y-114650000D01*
X135185714Y-114721428D01*
X135614285Y-114578571D02*
X136114285Y-116078571D01*
X136614285Y-114578571D01*
X138185714Y-114721428D02*
X138257142Y-114650000D01*
X138400000Y-114578571D01*
X138757142Y-114578571D01*
X138900000Y-114650000D01*
X138971428Y-114721428D01*
X139042857Y-114864285D01*
X139042857Y-115007142D01*
X138971428Y-115221428D01*
X138114285Y-116078571D01*
X139042857Y-116078571D01*
X123428571Y-131728571D02*
X123428571Y-130228571D01*
X124142857Y-131728571D02*
X124142857Y-130228571D01*
X125000000Y-131728571D01*
X125000000Y-130228571D01*
X127642857Y-131728571D02*
X126785714Y-131728571D01*
X127214285Y-131728571D02*
X127214285Y-130228571D01*
X127071428Y-130442857D01*
X126928571Y-130585714D01*
X126785714Y-130657142D01*
X146150000Y-130228571D02*
X146435714Y-130228571D01*
X146578571Y-130300000D01*
X146721428Y-130442857D01*
X146792857Y-130728571D01*
X146792857Y-131228571D01*
X146721428Y-131514285D01*
X146578571Y-131657142D01*
X146435714Y-131728571D01*
X146150000Y-131728571D01*
X146007142Y-131657142D01*
X145864285Y-131514285D01*
X145792857Y-131228571D01*
X145792857Y-130728571D01*
X145864285Y-130442857D01*
X146007142Y-130300000D01*
X146150000Y-130228571D01*
X147435714Y-130228571D02*
X147435714Y-131442857D01*
X147507142Y-131585714D01*
X147578571Y-131657142D01*
X147721428Y-131728571D01*
X148007142Y-131728571D01*
X148150000Y-131657142D01*
X148221428Y-131585714D01*
X148292857Y-131442857D01*
X148292857Y-130228571D01*
X148792857Y-130228571D02*
X149650000Y-130228571D01*
X149221428Y-131728571D02*
X149221428Y-130228571D01*
X140142857Y-96728571D02*
X140142857Y-95228571D01*
X140857142Y-96728571D02*
X140857142Y-95228571D01*
X141714285Y-96728571D01*
X141714285Y-95228571D01*
X143500000Y-95371428D02*
X143571428Y-95300000D01*
X143714285Y-95228571D01*
X144071428Y-95228571D01*
X144214285Y-95300000D01*
X144285714Y-95371428D01*
X144357142Y-95514285D01*
X144357142Y-95657142D01*
X144285714Y-95871428D01*
X143428571Y-96728571D01*
X144357142Y-96728571D01*
X146857142Y-96728571D02*
X146142857Y-96728571D01*
X146142857Y-95228571D01*
X147357142Y-95942857D02*
X147857142Y-95942857D01*
X148071428Y-96728571D02*
X147357142Y-96728571D01*
X147357142Y-95228571D01*
X148071428Y-95228571D01*
X148500000Y-95228571D02*
X149000000Y-96728571D01*
X149500000Y-95228571D01*
X150000000Y-95942857D02*
X150500000Y-95942857D01*
X150714285Y-96728571D02*
X150000000Y-96728571D01*
X150000000Y-95228571D01*
X150714285Y-95228571D01*
X152071428Y-96728571D02*
X151357142Y-96728571D01*
X151357142Y-95228571D01*
D13*
X134192857Y-23376190D02*
X134192857Y-23852380D01*
X133859523Y-22852380D02*
X134192857Y-23376190D01*
X134526190Y-22852380D01*
X134859523Y-22852380D02*
X134859523Y-23661904D01*
X134907142Y-23757142D01*
X134954761Y-23804761D01*
X135050000Y-23852380D01*
X135240476Y-23852380D01*
X135335714Y-23804761D01*
X135383333Y-23757142D01*
X135430952Y-23661904D01*
X135430952Y-22852380D01*
X135859523Y-23804761D02*
X136002380Y-23852380D01*
X136240476Y-23852380D01*
X136335714Y-23804761D01*
X136383333Y-23757142D01*
X136430952Y-23661904D01*
X136430952Y-23566666D01*
X136383333Y-23471428D01*
X136335714Y-23423809D01*
X136240476Y-23376190D01*
X136050000Y-23328571D01*
X135954761Y-23280952D01*
X135907142Y-23233333D01*
X135859523Y-23138095D01*
X135859523Y-23042857D01*
X135907142Y-22947619D01*
X135954761Y-22900000D01*
X136050000Y-22852380D01*
X136288095Y-22852380D01*
X136430952Y-22900000D01*
X137050000Y-23376190D02*
X137050000Y-23852380D01*
X136716666Y-22852380D02*
X137050000Y-23376190D01*
X137383333Y-22852380D01*
X137716666Y-23852380D02*
X137716666Y-22852380D01*
X138288095Y-23852380D01*
X138288095Y-22852380D01*
X138621428Y-22852380D02*
X139192857Y-22852380D01*
X138907142Y-23852380D02*
X138907142Y-22852380D01*
X139526190Y-23852380D02*
X139526190Y-22852380D01*
X139526190Y-23328571D02*
X140097619Y-23328571D01*
X140097619Y-23852380D02*
X140097619Y-22852380D01*
G36*
X137608811Y-30149520D02*
G01*
X137693833Y-30174292D01*
X137814325Y-30213369D01*
X137971831Y-30267298D01*
X138167896Y-30336632D01*
X138404065Y-30421918D01*
X138681883Y-30523708D01*
X139002894Y-30642552D01*
X139368644Y-30778999D01*
X139780676Y-30933599D01*
X140029527Y-31027299D01*
X140193195Y-31088760D01*
X140355730Y-31149380D01*
X140504725Y-31204562D01*
X140627775Y-31249710D01*
X140702542Y-31276705D01*
X140797959Y-31312669D01*
X140872977Y-31344715D01*
X140914916Y-31367300D01*
X140919136Y-31371378D01*
X140917209Y-31402489D01*
X140903722Y-31476163D01*
X140880412Y-31584421D01*
X140849013Y-31719281D01*
X140811259Y-31872764D01*
X140803306Y-31904179D01*
X140738329Y-32146529D01*
X140674829Y-32349711D01*
X140606885Y-32526291D01*
X140528574Y-32688838D01*
X140433974Y-32849919D01*
X140317161Y-33022103D01*
X140204043Y-33175887D01*
X140099985Y-33310198D01*
X139981530Y-33456581D01*
X139853421Y-33609789D01*
X139720407Y-33764574D01*
X139587231Y-33915688D01*
X139458641Y-34057884D01*
X139339383Y-34185915D01*
X139234201Y-34294533D01*
X139147842Y-34378491D01*
X139085053Y-34432540D01*
X139050578Y-34451435D01*
X139050425Y-34451430D01*
X138995073Y-34440646D01*
X138950296Y-34425659D01*
X138824931Y-34356960D01*
X138700605Y-34257956D01*
X138598880Y-34146411D01*
X138581801Y-34122142D01*
X138513356Y-33995037D01*
X138450609Y-33827522D01*
X138392027Y-33615075D01*
X138357390Y-33460082D01*
X138343647Y-33399527D01*
X138318269Y-33293419D01*
X138282522Y-33146852D01*
X138237669Y-32964920D01*
X138184976Y-32752717D01*
X138125708Y-32515336D01*
X138061129Y-32257871D01*
X137992503Y-31985417D01*
X137923799Y-31713729D01*
X137854134Y-31437922D01*
X137788674Y-31177078D01*
X137728498Y-30935615D01*
X137674687Y-30717948D01*
X137628321Y-30528495D01*
X137590481Y-30371672D01*
X137562247Y-30251897D01*
X137544700Y-30173585D01*
X137538920Y-30141154D01*
X137538994Y-30140686D01*
X137557712Y-30138501D01*
X137608811Y-30149520D01*
G37*
G36*
X135615190Y-42839030D02*
G01*
X135685720Y-42903779D01*
X135733729Y-42999481D01*
X135753802Y-43116141D01*
X135746004Y-43218402D01*
X135704275Y-43331062D01*
X135630049Y-43404659D01*
X135556208Y-43432162D01*
X135486854Y-43434813D01*
X135430170Y-43403883D01*
X135407683Y-43382897D01*
X135347846Y-43295217D01*
X135318090Y-43191009D01*
X135316040Y-43081513D01*
X135339322Y-42977974D01*
X135385562Y-42891632D01*
X135452387Y-42833731D01*
X135527554Y-42815226D01*
X135615190Y-42839030D01*
G37*
G36*
X135541414Y-34333019D02*
G01*
X135642229Y-34187654D01*
X135768442Y-34085257D01*
X135914998Y-34028375D01*
X136076846Y-34019558D01*
X136142875Y-34029667D01*
X136313134Y-34085570D01*
X136442509Y-34173770D01*
X136531700Y-34295145D01*
X136581403Y-34450575D01*
X136593210Y-34596810D01*
X136571526Y-34784995D01*
X136507256Y-34943730D01*
X136401570Y-35071323D01*
X136255640Y-35166075D01*
X136178445Y-35197110D01*
X136069846Y-35227182D01*
X135980382Y-35231747D01*
X135884215Y-35211922D01*
X135878081Y-35210106D01*
X135750582Y-35149614D01*
X135632685Y-35054216D01*
X135546020Y-34942696D01*
X135500791Y-34821968D01*
X135481140Y-34675433D01*
X135487219Y-34522946D01*
X135504303Y-34448862D01*
X135553145Y-34448862D01*
X135556612Y-34548388D01*
X135591190Y-34614351D01*
X135652029Y-34651443D01*
X135726708Y-34660272D01*
X135791449Y-34639636D01*
X135807324Y-34625274D01*
X135840691Y-34553837D01*
X135854854Y-34457706D01*
X135847462Y-34361658D01*
X135835930Y-34323728D01*
X135786360Y-34249411D01*
X135724949Y-34222677D01*
X135660562Y-34243124D01*
X135602067Y-34310349D01*
X135589159Y-34334931D01*
X135553145Y-34448862D01*
X135504303Y-34448862D01*
X135519177Y-34384359D01*
X135541414Y-34333019D01*
G37*
G36*
X138004382Y-38857877D02*
G01*
X138004321Y-38856275D01*
X138023147Y-38804012D01*
X138161112Y-38804012D01*
X138174177Y-38817078D01*
X138187243Y-38804012D01*
X138174177Y-38790946D01*
X138161112Y-38804012D01*
X138023147Y-38804012D01*
X138023187Y-38803900D01*
X138068257Y-38745769D01*
X138122235Y-38700618D01*
X138161112Y-38686419D01*
X138216864Y-38709209D01*
X138269890Y-38766139D01*
X138307478Y-38840047D01*
X138317902Y-38898078D01*
X138297534Y-38970220D01*
X138245838Y-39013320D01*
X138176924Y-39024159D01*
X138104904Y-38999516D01*
X138058481Y-38957278D01*
X138024867Y-38906504D01*
X138148772Y-38906504D01*
X138160616Y-38927468D01*
X138166047Y-38929897D01*
X138241207Y-38946718D01*
X138282809Y-38923785D01*
X138291770Y-38882407D01*
X138277543Y-38830009D01*
X138240072Y-38820716D01*
X138187171Y-38855597D01*
X138176630Y-38866631D01*
X138148772Y-38906504D01*
X138024867Y-38906504D01*
X138021091Y-38900800D01*
X138004382Y-38857877D01*
G37*
G36*
X132751573Y-42951397D02*
G01*
X132751865Y-42952417D01*
X132760357Y-42978301D01*
X132782269Y-43038313D01*
X132804022Y-43096142D01*
X132856166Y-43233333D01*
X132738680Y-43233333D01*
X132668576Y-43229062D01*
X132626555Y-43218258D01*
X132621194Y-43211856D01*
X132630093Y-43164547D01*
X132652142Y-43096967D01*
X132680367Y-43026453D01*
X132707797Y-42970339D01*
X132727458Y-42945960D01*
X132728177Y-42945884D01*
X132751573Y-42951397D01*
G37*
G36*
X132264106Y-37621290D02*
G01*
X132501982Y-37634815D01*
X132702829Y-37661235D01*
X132881030Y-37704044D01*
X133050968Y-37766733D01*
X133227024Y-37852795D01*
X133234843Y-37857014D01*
X133329296Y-37912574D01*
X133392936Y-37966130D01*
X133430887Y-38029219D01*
X133448272Y-38113378D01*
X133450214Y-38230145D01*
X133445488Y-38331327D01*
X133420135Y-38592010D01*
X133374907Y-38816588D01*
X133306762Y-39018439D01*
X133270774Y-39099238D01*
X133164678Y-39276571D01*
X133027754Y-39422322D01*
X132851659Y-39544621D01*
X132768402Y-39588787D01*
X132671494Y-39634848D01*
X132593942Y-39664498D01*
X132517755Y-39681867D01*
X132424943Y-39691083D01*
X132300382Y-39696188D01*
X132142213Y-39696232D01*
X132003953Y-39687155D01*
X131902572Y-39670249D01*
X131706533Y-39602014D01*
X131523385Y-39505970D01*
X131363603Y-39389464D01*
X131237665Y-39259843D01*
X131171160Y-39157332D01*
X131109426Y-39022829D01*
X131065582Y-38892745D01*
X131037004Y-38753613D01*
X131021069Y-38591962D01*
X131015154Y-38394324D01*
X131014954Y-38355250D01*
X131016080Y-38186897D01*
X131023298Y-38061764D01*
X131041031Y-37970834D01*
X131073699Y-37905093D01*
X131125723Y-37855522D01*
X131201525Y-37813107D01*
X131301749Y-37770355D01*
X131473359Y-37706548D01*
X131631095Y-37661801D01*
X131789804Y-37633816D01*
X131964336Y-37620291D01*
X132169540Y-37618927D01*
X132264106Y-37621290D01*
G37*
G36*
X134346485Y-33739608D02*
G01*
X134390129Y-33438276D01*
X134432231Y-33149507D01*
X134472105Y-32877893D01*
X134509063Y-32628028D01*
X134542417Y-32404504D01*
X134571481Y-32211914D01*
X134595568Y-32054852D01*
X134613989Y-31937910D01*
X134626059Y-31865681D01*
X134629641Y-31847117D01*
X134647703Y-31755849D01*
X134670538Y-31624361D01*
X134696364Y-31464283D01*
X134723401Y-31287245D01*
X134749866Y-31104878D01*
X134773978Y-30928812D01*
X134791861Y-30788117D01*
X134822709Y-30533333D01*
X136486327Y-30533333D01*
X136667260Y-30278549D01*
X136742951Y-30174083D01*
X136812415Y-30082028D01*
X136867590Y-30012832D01*
X136898846Y-29978308D01*
X136931173Y-29953789D01*
X136961564Y-29951603D01*
X137005594Y-29975188D01*
X137059607Y-30013824D01*
X137132115Y-30076072D01*
X137190523Y-30141658D01*
X137207997Y-30168827D01*
X137220551Y-30205936D01*
X137244601Y-30289544D01*
X137279043Y-30415429D01*
X137322775Y-30579367D01*
X137374693Y-30777136D01*
X137433694Y-31004513D01*
X137498676Y-31257274D01*
X137568536Y-31531197D01*
X137642170Y-31822059D01*
X137703793Y-32067055D01*
X137792053Y-32418576D01*
X137868867Y-32723366D01*
X137935358Y-32985424D01*
X137992650Y-33208751D01*
X138041865Y-33397345D01*
X138084127Y-33555206D01*
X138120558Y-33686333D01*
X138152282Y-33794724D01*
X138180422Y-33884380D01*
X138206100Y-33959299D01*
X138230439Y-34023481D01*
X138254563Y-34080925D01*
X138279595Y-34135630D01*
X138291868Y-34161274D01*
X138422428Y-34431293D01*
X138421573Y-35232673D01*
X138421006Y-35497741D01*
X138419285Y-35717339D01*
X138415458Y-35898259D01*
X138408567Y-36047295D01*
X138397660Y-36171239D01*
X138381781Y-36276883D01*
X138359976Y-36371022D01*
X138331289Y-36460447D01*
X138294766Y-36551952D01*
X138249452Y-36652328D01*
X138210451Y-36734735D01*
X138143964Y-36870806D01*
X138077108Y-37001890D01*
X138016758Y-37114867D01*
X137969791Y-37196616D01*
X137961373Y-37209979D01*
X137911630Y-37294175D01*
X137873443Y-37372305D01*
X137859503Y-37411553D01*
X137847225Y-37440415D01*
X137820469Y-37470564D01*
X137772855Y-37506155D01*
X137698004Y-37551347D01*
X137589538Y-37610297D01*
X137441076Y-37687161D01*
X137420296Y-37697773D01*
X136998251Y-37913076D01*
X136411029Y-38515334D01*
X136133310Y-38799429D01*
X135862201Y-39075338D01*
X135600386Y-39340404D01*
X135350548Y-39591968D01*
X135115373Y-39827372D01*
X134897545Y-40043958D01*
X134699747Y-40239067D01*
X134524663Y-40410043D01*
X134374978Y-40554226D01*
X134253377Y-40668959D01*
X134162542Y-40751584D01*
X134105159Y-40799442D01*
X134102700Y-40801250D01*
X133922823Y-40915402D01*
X133707875Y-41024988D01*
X133474932Y-41121970D01*
X133287552Y-41184943D01*
X133186413Y-41213316D01*
X133096818Y-41233045D01*
X133004793Y-41245746D01*
X132896365Y-41253034D01*
X132757561Y-41256523D01*
X132660391Y-41257426D01*
X132494357Y-41257216D01*
X132367475Y-41253426D01*
X132266691Y-41244852D01*
X132178947Y-41230291D01*
X132091187Y-41208536D01*
X132072358Y-41203180D01*
X131768107Y-41101057D01*
X131499822Y-40978253D01*
X131252672Y-40826373D01*
X131011827Y-40637022D01*
X130910157Y-40545397D01*
X130816203Y-40450308D01*
X131406070Y-40450308D01*
X131503612Y-40524927D01*
X131605268Y-40589445D01*
X131742544Y-40658384D01*
X131899921Y-40725378D01*
X132061883Y-40784061D01*
X132212910Y-40828067D01*
X132276531Y-40842025D01*
X132591247Y-40875224D01*
X132905226Y-40856768D01*
X133213189Y-40787044D01*
X133266517Y-40769446D01*
X133516640Y-40673520D01*
X133715928Y-40576512D01*
X133847249Y-40491606D01*
X133863910Y-40477780D01*
X133870172Y-40466713D01*
X133860945Y-40457921D01*
X133831141Y-40450922D01*
X133775671Y-40445231D01*
X133689447Y-40440366D01*
X133567379Y-40435843D01*
X133404380Y-40431177D01*
X133195361Y-40425887D01*
X133141693Y-40424566D01*
X132914602Y-40420278D01*
X132675977Y-40418048D01*
X132438973Y-40417840D01*
X132216747Y-40419616D01*
X132022454Y-40423342D01*
X131889507Y-40427996D01*
X131406070Y-40450308D01*
X130816203Y-40450308D01*
X130665027Y-40297305D01*
X130467220Y-40052742D01*
X130312648Y-39805847D01*
X130197223Y-39550757D01*
X130177399Y-39495084D01*
X130152126Y-39415964D01*
X130134436Y-39343998D01*
X130123054Y-39267178D01*
X130116705Y-39173496D01*
X130114116Y-39050943D01*
X130113976Y-38897429D01*
X130116316Y-38720035D01*
X130123020Y-38563439D01*
X130135633Y-38414502D01*
X130155700Y-38260083D01*
X130184768Y-38087044D01*
X130224381Y-37882245D01*
X130245545Y-37778706D01*
X130306241Y-37485088D01*
X130246353Y-37360599D01*
X130210801Y-37291193D01*
X130155880Y-37189331D01*
X130088549Y-37067705D01*
X130015770Y-36939009D01*
X130001439Y-36914001D01*
X129930304Y-36784879D01*
X129866350Y-36659077D01*
X129815799Y-36549511D01*
X129784873Y-36469100D01*
X129781560Y-36457534D01*
X129770641Y-36398070D01*
X129761986Y-36310038D01*
X129755433Y-36188986D01*
X129750822Y-36030460D01*
X129747991Y-35830010D01*
X129746780Y-35583183D01*
X129746708Y-35494316D01*
X129746708Y-34665454D01*
X129501967Y-34781390D01*
X129397335Y-34829733D01*
X129309180Y-34868198D01*
X129248803Y-34891982D01*
X129229103Y-34897325D01*
X129206419Y-34920208D01*
X129179775Y-34978568D01*
X129165923Y-35021450D01*
X129137380Y-35097697D01*
X129106729Y-35140536D01*
X129094170Y-35145576D01*
X129061791Y-35126599D01*
X129006965Y-35075961D01*
X128939525Y-35003098D01*
X128912122Y-34970926D01*
X128854792Y-34901933D01*
X128770618Y-34800493D01*
X128666082Y-34674422D01*
X128547663Y-34531537D01*
X128421840Y-34379653D01*
X128327203Y-34265371D01*
X128199559Y-34111248D01*
X128074016Y-33959745D01*
X127957168Y-33818813D01*
X127855612Y-33696406D01*
X127775942Y-33600476D01*
X127735232Y-33551543D01*
X127571685Y-33355023D01*
X127438676Y-33194622D01*
X127333091Y-33066468D01*
X127251818Y-32966692D01*
X127191742Y-32891425D01*
X127149751Y-32836796D01*
X127122729Y-32798936D01*
X127107565Y-32773974D01*
X127104493Y-32767592D01*
X127094178Y-32727951D01*
X127077257Y-32644083D01*
X127054950Y-32523436D01*
X127028476Y-32373456D01*
X126999056Y-32201590D01*
X126967909Y-32015287D01*
X126936254Y-31821992D01*
X126905312Y-31629154D01*
X126876303Y-31444219D01*
X126850446Y-31274634D01*
X126828962Y-31127848D01*
X126813069Y-31011306D01*
X126804097Y-30933634D01*
X126796306Y-30836040D01*
X126797099Y-30777167D01*
X126808888Y-30743841D01*
X126834088Y-30722886D01*
X126843680Y-30717545D01*
X126887810Y-30698870D01*
X126975906Y-30665842D01*
X127102285Y-30620436D01*
X127261266Y-30564629D01*
X127447169Y-30500398D01*
X127654310Y-30429719D01*
X127877010Y-30354568D01*
X128109586Y-30276922D01*
X128126544Y-30271293D01*
X128237695Y-30233822D01*
X128386868Y-30182663D01*
X128562867Y-30121704D01*
X128754493Y-30054832D01*
X128950549Y-29985935D01*
X129067284Y-29944664D01*
X129286998Y-29867007D01*
X129533491Y-29780251D01*
X129788969Y-29690637D01*
X130035639Y-29604402D01*
X130255706Y-29527785D01*
X130308539Y-29509458D01*
X130491333Y-29446112D01*
X130671620Y-29383632D01*
X130838963Y-29325636D01*
X130982928Y-29275739D01*
X131093081Y-29237559D01*
X131131688Y-29224176D01*
X131242879Y-29187380D01*
X131317633Y-29168212D01*
X131367975Y-29164742D01*
X131405933Y-29175038D01*
X131413708Y-29178902D01*
X131450994Y-29207485D01*
X131517221Y-29267063D01*
X131605230Y-29350844D01*
X131707858Y-29452034D01*
X131799950Y-29545336D01*
X132126291Y-29880041D01*
X136107462Y-29880041D01*
X136462463Y-29528280D01*
X136588262Y-29404551D01*
X136683334Y-29313832D01*
X136753325Y-29251604D01*
X136803882Y-29213349D01*
X136840651Y-29194547D01*
X136869280Y-29190682D01*
X136881726Y-29192788D01*
X136921923Y-29205835D01*
X137004337Y-29234816D01*
X137122259Y-29277293D01*
X137268976Y-29330826D01*
X137437780Y-29392978D01*
X137621961Y-29461309D01*
X137677675Y-29482076D01*
X137881822Y-29558061D01*
X138087601Y-29634313D01*
X138284972Y-29707134D01*
X138463897Y-29772831D01*
X138614334Y-29827707D01*
X138726245Y-29868067D01*
X138729507Y-29869231D01*
X138876249Y-29922551D01*
X139029597Y-29979944D01*
X139169964Y-30033993D01*
X139265207Y-30072081D01*
X139370671Y-30114675D01*
X139464709Y-30151219D01*
X139531716Y-30175696D01*
X139546091Y-30180358D01*
X139602304Y-30199098D01*
X139704229Y-30235198D01*
X139848705Y-30287497D01*
X140032572Y-30354839D01*
X140252669Y-30436065D01*
X140505835Y-30530017D01*
X140788909Y-30635536D01*
X140826544Y-30649595D01*
X140990640Y-30710291D01*
X141148270Y-30767459D01*
X141289167Y-30817462D01*
X141403064Y-30856662D01*
X141479697Y-30881423D01*
X141486369Y-30883386D01*
X141566005Y-30909720D01*
X141620482Y-30934126D01*
X141636626Y-30948603D01*
X141631952Y-30984710D01*
X141619936Y-31054235D01*
X141609167Y-31111196D01*
X141596764Y-31179413D01*
X141577882Y-31289159D01*
X141554209Y-31430339D01*
X141527432Y-31592861D01*
X141499241Y-31766631D01*
X141491667Y-31813786D01*
X141460964Y-32002819D01*
X141428805Y-32196389D01*
X141397523Y-32380756D01*
X141369452Y-32542181D01*
X141346925Y-32666925D01*
X141345280Y-32675722D01*
X141320463Y-32804643D01*
X141299557Y-32895107D01*
X141276995Y-32960055D01*
X141247213Y-33012428D01*
X141204646Y-33065167D01*
X141154243Y-33119961D01*
X141085757Y-33194951D01*
X140994568Y-33297189D01*
X140891802Y-33414088D01*
X140788589Y-33533060D01*
X140772791Y-33551430D01*
X140656473Y-33686054D01*
X140525329Y-33836533D01*
X140395927Y-33983922D01*
X140290844Y-34102539D01*
X140116800Y-34298241D01*
X139976079Y-34457633D01*
X139866738Y-34582978D01*
X139786834Y-34676540D01*
X139734426Y-34740581D01*
X139707572Y-34777365D01*
X139702898Y-34787655D01*
X139727927Y-34792390D01*
X139798577Y-34796667D01*
X139908207Y-34800318D01*
X140050175Y-34803178D01*
X140217840Y-34805079D01*
X140404560Y-34805854D01*
X140428053Y-34805864D01*
X140643695Y-34806053D01*
X140815719Y-34807028D01*
X140952770Y-34809404D01*
X141063494Y-34813793D01*
X141156535Y-34820809D01*
X141240539Y-34831064D01*
X141324151Y-34845173D01*
X141416016Y-34863748D01*
X141499636Y-34881879D01*
X141627732Y-34908442D01*
X141737192Y-34928229D01*
X141818129Y-34939671D01*
X141860656Y-34941198D01*
X141864217Y-34939761D01*
X141878505Y-34902749D01*
X141895917Y-34821968D01*
X141915337Y-34705742D01*
X141935650Y-34562392D01*
X141955739Y-34400243D01*
X141974489Y-34227616D01*
X141990784Y-34052835D01*
X141993256Y-34020939D01*
X142431147Y-34020939D01*
X142432077Y-34078066D01*
X142435381Y-34094292D01*
X142437858Y-34084648D01*
X142452215Y-34048045D01*
X142551235Y-34048045D01*
X142564301Y-34061111D01*
X142577367Y-34048045D01*
X142564301Y-34034979D01*
X142551235Y-34048045D01*
X142452215Y-34048045D01*
X142457642Y-34034210D01*
X142504673Y-34015879D01*
X142526459Y-34014533D01*
X142580872Y-34020150D01*
X142603498Y-34036727D01*
X142614782Y-34062787D01*
X142642676Y-34049720D01*
X142678243Y-34003992D01*
X142696982Y-33969079D01*
X142723447Y-33880811D01*
X142724201Y-33773986D01*
X142698721Y-33638078D01*
X142676619Y-33558076D01*
X142649709Y-33490276D01*
X142624053Y-33461581D01*
X142605569Y-33476051D01*
X142600467Y-33505812D01*
X142596817Y-33538018D01*
X142589103Y-33519461D01*
X142585485Y-33505812D01*
X142558695Y-33466985D01*
X142538369Y-33460082D01*
X142508287Y-33484844D01*
X142480820Y-33553662D01*
X142457809Y-33658336D01*
X142441093Y-33790665D01*
X142432837Y-33930452D01*
X142431147Y-34020939D01*
X141993256Y-34020939D01*
X142001280Y-33917386D01*
X142019518Y-33670837D01*
X142037620Y-33470263D01*
X142057246Y-33309410D01*
X142080056Y-33182021D01*
X142107709Y-33081839D01*
X142141865Y-33002609D01*
X142184183Y-32938074D01*
X142236323Y-32881978D01*
X142287644Y-32837829D01*
X142375872Y-32746308D01*
X142459885Y-32621648D01*
X142484260Y-32576512D01*
X142533292Y-32483309D01*
X142578530Y-32402878D01*
X142610654Y-32351750D01*
X142612068Y-32349832D01*
X142641750Y-32315219D01*
X142667169Y-32315459D01*
X142709272Y-32349832D01*
X142778672Y-32439439D01*
X142825428Y-32553490D01*
X142838684Y-32645268D01*
X142826384Y-32712269D01*
X142795086Y-32798295D01*
X142773354Y-32843478D01*
X142736510Y-32917114D01*
X142712819Y-32972797D01*
X142708025Y-32991094D01*
X142731625Y-33004780D01*
X142792379Y-33013768D01*
X142848550Y-33015843D01*
X142950931Y-33023173D01*
X143011780Y-33046606D01*
X143024890Y-33058998D01*
X143039165Y-33093417D01*
X143051815Y-33162791D01*
X143063281Y-33271366D01*
X143074004Y-33423388D01*
X143084424Y-33623103D01*
X143085220Y-33640428D01*
X143096152Y-33889105D01*
X143103846Y-34093646D01*
X143108008Y-34262097D01*
X143108342Y-34402504D01*
X143104552Y-34522911D01*
X143096343Y-34631363D01*
X143083421Y-34735907D01*
X143065489Y-34844587D01*
X143042252Y-34965449D01*
X143035318Y-34999792D01*
X143005773Y-35148805D01*
X142986991Y-35254657D01*
X142978217Y-35325162D01*
X142978694Y-35368137D01*
X142987668Y-35391399D01*
X142996724Y-35399090D01*
X143031860Y-35419564D01*
X143103308Y-35460973D01*
X143202111Y-35518133D01*
X143319311Y-35585861D01*
X143378728Y-35620172D01*
X143860528Y-35928286D01*
X144310685Y-36277675D01*
X144727707Y-36666926D01*
X145110104Y-37094627D01*
X145456385Y-37559365D01*
X145511028Y-37641152D01*
X145630946Y-37836432D01*
X145757892Y-38065618D01*
X145883811Y-38312574D01*
X146000650Y-38561167D01*
X146100354Y-38795263D01*
X146143715Y-38908539D01*
X146190836Y-39037474D01*
X146238510Y-39167189D01*
X146279490Y-39277993D01*
X146296144Y-39322657D01*
X146353395Y-39475458D01*
X146541649Y-39535056D01*
X146733176Y-39606870D01*
X146887174Y-39692060D01*
X147018187Y-39799582D01*
X147082902Y-39868253D01*
X147202675Y-40005172D01*
X147202530Y-40489057D01*
X147201043Y-40650067D01*
X147197007Y-40799424D01*
X147190907Y-40926683D01*
X147183231Y-41021399D01*
X147175488Y-41069783D01*
X147121177Y-41180455D01*
X147024870Y-41291291D01*
X146896328Y-41395207D01*
X146745313Y-41485118D01*
X146581587Y-41553939D01*
X146464455Y-41585811D01*
X146314198Y-41616874D01*
X146313266Y-42588426D01*
X146312283Y-42910633D01*
X146309813Y-43184994D01*
X146305577Y-43415917D01*
X146299294Y-43607805D01*
X146290683Y-43765064D01*
X146279464Y-43892099D01*
X146265357Y-43993314D01*
X146248082Y-44073116D01*
X146227357Y-44135909D01*
X146212705Y-44168127D01*
X146125227Y-44297693D01*
X146004841Y-44419673D01*
X145869814Y-44515852D01*
X145856893Y-44522983D01*
X145752367Y-44579115D01*
X136919856Y-44581668D01*
X136241798Y-44581818D01*
X135576346Y-44581875D01*
X134925452Y-44581841D01*
X134291069Y-44581719D01*
X133675149Y-44581513D01*
X133079644Y-44581224D01*
X132506505Y-44580857D01*
X131957686Y-44580413D01*
X131435137Y-44579895D01*
X130940811Y-44579307D01*
X130476661Y-44578651D01*
X130044637Y-44577930D01*
X129646692Y-44577147D01*
X129284779Y-44576304D01*
X128960849Y-44575405D01*
X128676854Y-44574452D01*
X128434746Y-44573448D01*
X128236478Y-44572397D01*
X128084001Y-44571300D01*
X127979267Y-44570160D01*
X127924229Y-44568982D01*
X127917490Y-44568602D01*
X127729801Y-44529111D01*
X127568554Y-44446515D01*
X127431236Y-44318979D01*
X127315329Y-44144663D01*
X127301948Y-44118954D01*
X127238066Y-43992889D01*
X127238066Y-43170846D01*
X131269809Y-43170846D01*
X131293047Y-43305851D01*
X131342765Y-43421485D01*
X131401681Y-43491111D01*
X131495200Y-43542102D01*
X131622442Y-43576189D01*
X131767211Y-43591947D01*
X131913313Y-43587949D01*
X132044552Y-43562771D01*
X132050808Y-43560582D01*
X132255350Y-43560582D01*
X132278703Y-43568072D01*
X132337675Y-43572516D01*
X132370916Y-43573045D01*
X132444007Y-43569750D01*
X132483323Y-43552161D01*
X132507281Y-43508720D01*
X132516667Y-43481584D01*
X132546852Y-43390123D01*
X132728567Y-43390123D01*
X132827611Y-43392346D01*
X132886042Y-43400808D01*
X132915387Y-43418202D01*
X132924414Y-43435854D01*
X132956758Y-43512972D01*
X133003160Y-43552127D01*
X133081143Y-43567502D01*
X133087693Y-43568014D01*
X133154404Y-43568120D01*
X133192592Y-43558804D01*
X133196091Y-43553351D01*
X133187388Y-43522455D01*
X133163283Y-43451165D01*
X133126780Y-43348003D01*
X133080882Y-43221490D01*
X133041259Y-43114143D01*
X132970583Y-42924018D01*
X133305864Y-42924018D01*
X133322742Y-42989876D01*
X133328788Y-43007520D01*
X133358363Y-43074837D01*
X133399579Y-43118075D01*
X133469611Y-43153225D01*
X133496605Y-43163750D01*
X133623222Y-43212579D01*
X133708545Y-43248588D01*
X133760548Y-43276399D01*
X133787203Y-43300635D01*
X133796485Y-43325919D01*
X133797120Y-43337997D01*
X133773816Y-43390699D01*
X133731487Y-43421148D01*
X133678668Y-43435311D01*
X133609246Y-43433071D01*
X133512556Y-43413044D01*
X133385546Y-43376223D01*
X133344238Y-43369793D01*
X133328695Y-43394877D01*
X133326749Y-43436139D01*
X133336584Y-43503119D01*
X133371014Y-43548908D01*
X133437432Y-43577276D01*
X133543228Y-43591993D01*
X133640330Y-43596105D01*
X133773098Y-43585637D01*
X133875151Y-43553405D01*
X133968973Y-43480433D01*
X134021353Y-43382070D01*
X134029341Y-43268280D01*
X133993154Y-43155029D01*
X133963662Y-43112757D01*
X133917665Y-43079292D01*
X133842883Y-43047686D01*
X133751436Y-43018272D01*
X133646663Y-42984225D01*
X133583067Y-42955944D01*
X133550795Y-42927912D01*
X133540639Y-42900215D01*
X133555712Y-42851839D01*
X133615597Y-42824175D01*
X133716926Y-42817679D01*
X133856332Y-42832810D01*
X133931764Y-42847042D01*
X133939979Y-42841358D01*
X134136832Y-42841358D01*
X134450412Y-42841358D01*
X134450412Y-43573045D01*
X134685597Y-43573045D01*
X134685597Y-43053780D01*
X135061942Y-43053780D01*
X135064270Y-43192883D01*
X135100743Y-43326738D01*
X135170667Y-43444785D01*
X135273345Y-43536466D01*
X135322941Y-43563169D01*
X135418020Y-43588075D01*
X135535706Y-43593980D01*
X135655755Y-43582277D01*
X135689535Y-43573045D01*
X136175103Y-43573045D01*
X136403866Y-43573045D01*
X136426676Y-43292129D01*
X136449486Y-43011214D01*
X136593210Y-43285596D01*
X136736935Y-43559979D01*
X136874126Y-43567878D01*
X137011317Y-43575776D01*
X137011317Y-43573045D01*
X137690741Y-43573045D01*
X137925926Y-43573045D01*
X137925926Y-43267304D01*
X137927779Y-43139449D01*
X137932990Y-43046349D01*
X137941042Y-42994175D01*
X137949523Y-42986388D01*
X137970531Y-43021325D01*
X138004258Y-43090699D01*
X138043932Y-43180460D01*
X138049693Y-43194135D01*
X138090956Y-43288203D01*
X138122920Y-43343993D01*
X138154493Y-43372217D01*
X138194584Y-43383587D01*
X138208623Y-43385216D01*
X138248480Y-43386704D01*
X138278844Y-43376022D01*
X138307411Y-43344475D01*
X138341879Y-43283368D01*
X138389943Y-43184005D01*
X138393651Y-43176163D01*
X138496321Y-42958950D01*
X138498572Y-43265998D01*
X138500823Y-43573045D01*
X138736009Y-43573045D01*
X138736009Y-42671502D01*
X138958128Y-42671502D01*
X138967234Y-43011214D01*
X138974488Y-43181892D01*
X138987790Y-43309130D01*
X139010158Y-43401664D01*
X139044608Y-43468227D01*
X139094158Y-43517557D01*
X139155005Y-43554880D01*
X139257975Y-43586926D01*
X139381032Y-43594412D01*
X139502961Y-43578486D01*
X139602550Y-43540297D01*
X139618304Y-43529804D01*
X139668150Y-43486564D01*
X139704126Y-43435907D01*
X139728766Y-43368495D01*
X139744604Y-43274990D01*
X139754173Y-43146053D01*
X139759015Y-43011214D01*
X139761464Y-42920743D01*
X139968435Y-42920743D01*
X139971917Y-42950209D01*
X139986434Y-43022872D01*
X140013558Y-43076319D01*
X140062905Y-43119167D01*
X140144093Y-43160032D01*
X140253871Y-43202801D01*
X140356987Y-43243885D01*
X140418943Y-43277650D01*
X140449122Y-43310092D01*
X140455951Y-43331915D01*
X140442938Y-43388106D01*
X140389585Y-43422372D01*
X140303352Y-43433929D01*
X140191697Y-43421991D01*
X140062078Y-43385776D01*
X140036060Y-43376095D01*
X140005485Y-43372488D01*
X139992520Y-43401264D01*
X139990330Y-43451909D01*
X139996304Y-43517006D01*
X140024031Y-43550757D01*
X140075258Y-43569941D01*
X140193909Y-43591137D01*
X140326970Y-43595113D01*
X140451378Y-43582329D01*
X140484521Y-43573045D01*
X140904939Y-43573045D01*
X141167490Y-43573045D01*
X141160340Y-43122273D01*
X141159490Y-43068710D01*
X141332168Y-43068710D01*
X141334283Y-43177149D01*
X141360102Y-43292509D01*
X141403521Y-43398032D01*
X141458437Y-43476957D01*
X141490035Y-43502226D01*
X141648918Y-43569399D01*
X141815411Y-43597630D01*
X141974007Y-43584938D01*
X142024702Y-43570489D01*
X142082480Y-43541897D01*
X142104466Y-43497743D01*
X142106996Y-43454055D01*
X142106996Y-43366310D01*
X141995937Y-43405773D01*
X141865043Y-43430772D01*
X141751376Y-43411357D01*
X141662002Y-43352116D01*
X141603990Y-43257638D01*
X141584363Y-43138569D01*
X141601352Y-42999710D01*
X141652128Y-42900655D01*
X141736400Y-42841579D01*
X141853879Y-42822659D01*
X142004275Y-42844072D01*
X142048200Y-42856109D01*
X142089162Y-42861899D01*
X142104869Y-42836910D01*
X142106996Y-42793061D01*
X142095885Y-42730141D01*
X142057541Y-42689290D01*
X141984445Y-42666721D01*
X141869081Y-42658645D01*
X141839869Y-42658436D01*
X141663961Y-42677167D01*
X141524419Y-42733160D01*
X141421619Y-42826111D01*
X141355936Y-42955716D01*
X141332168Y-43068710D01*
X141159490Y-43068710D01*
X141153190Y-42671502D01*
X141029064Y-42663537D01*
X140904939Y-42655572D01*
X140904939Y-43573045D01*
X140484521Y-43573045D01*
X140527809Y-43560919D01*
X140611849Y-43500250D01*
X140665346Y-43410419D01*
X140685653Y-43306319D01*
X140670121Y-43202840D01*
X140616100Y-43114873D01*
X140608464Y-43107489D01*
X140553449Y-43072965D01*
X140467924Y-43036117D01*
X140389283Y-43010496D01*
X140268544Y-42970328D01*
X140199377Y-42930719D01*
X140181107Y-42891064D01*
X140211897Y-42851596D01*
X140285958Y-42823343D01*
X140389856Y-42816739D01*
X140505555Y-42832461D01*
X140532735Y-42839533D01*
X140590092Y-42852901D01*
X140613112Y-42839546D01*
X140617475Y-42787899D01*
X140617490Y-42777000D01*
X140612976Y-42724312D01*
X140593405Y-42689956D01*
X140549730Y-42670088D01*
X140472909Y-42660867D01*
X140353894Y-42658451D01*
X140338357Y-42658436D01*
X140236518Y-42659757D01*
X140170391Y-42667242D01*
X140123428Y-42686177D01*
X140079086Y-42721845D01*
X140049703Y-42750626D01*
X139994177Y-42811521D01*
X139969964Y-42860847D01*
X139968435Y-42920743D01*
X139761464Y-42920743D01*
X139768210Y-42671502D01*
X139666343Y-42663160D01*
X139585452Y-42666214D01*
X139542618Y-42689292D01*
X139533701Y-42728315D01*
X139526461Y-42807315D01*
X139521746Y-42914012D01*
X139520359Y-43011932D01*
X139516674Y-43169605D01*
X139504407Y-43282055D01*
X139480986Y-43355977D01*
X139443835Y-43398065D01*
X139390382Y-43415013D01*
X139364887Y-43416255D01*
X139313693Y-43411045D01*
X139276392Y-43390553D01*
X139250334Y-43347486D01*
X139232871Y-43274554D01*
X139221353Y-43164462D01*
X139213131Y-43009919D01*
X139212603Y-42997070D01*
X139198765Y-42655883D01*
X139078447Y-42663692D01*
X138958128Y-42671502D01*
X138736009Y-42671502D01*
X138736009Y-42652414D01*
X138585751Y-42671102D01*
X138501887Y-42682756D01*
X138440819Y-42693513D01*
X138419805Y-42699371D01*
X138402779Y-42726220D01*
X138371303Y-42789197D01*
X138331284Y-42876291D01*
X138318283Y-42905813D01*
X138276714Y-42996444D01*
X138241342Y-43065039D01*
X138218144Y-43100286D01*
X138214281Y-43102674D01*
X138196550Y-43080347D01*
X138164360Y-43020569D01*
X138123317Y-42934148D01*
X138102428Y-42887088D01*
X138008743Y-42671502D01*
X137690741Y-42655942D01*
X137690741Y-43573045D01*
X137011317Y-43573045D01*
X137011317Y-42658436D01*
X136802264Y-42658436D01*
X136802078Y-42769495D01*
X136799394Y-42855754D01*
X136792614Y-42967106D01*
X136785012Y-43059315D01*
X136768132Y-43238075D01*
X136628920Y-42980920D01*
X136572478Y-42876395D01*
X136525700Y-42789274D01*
X136493924Y-42729528D01*
X136482663Y-42707641D01*
X136455043Y-42696034D01*
X136390820Y-42682620D01*
X136325360Y-42673096D01*
X136175103Y-42654675D01*
X136175103Y-43573045D01*
X135689535Y-43573045D01*
X135757919Y-43554356D01*
X135802445Y-43530224D01*
X135906026Y-43432506D01*
X135966981Y-43319155D01*
X135991184Y-43177947D01*
X135992181Y-43135424D01*
X135977842Y-42973886D01*
X135932579Y-42849011D01*
X135853026Y-42753056D01*
X135812525Y-42722169D01*
X135710330Y-42677805D01*
X135581244Y-42656440D01*
X135445514Y-42658504D01*
X135323390Y-42684430D01*
X135266788Y-42710558D01*
X135162506Y-42802059D01*
X135094456Y-42919986D01*
X135061942Y-43053780D01*
X134685597Y-43053780D01*
X134685597Y-42841358D01*
X135002489Y-42841358D01*
X134994300Y-42756430D01*
X134986112Y-42671502D01*
X134561472Y-42664321D01*
X134136832Y-42657141D01*
X134136832Y-42841358D01*
X133939979Y-42841358D01*
X133954591Y-42831248D01*
X133960414Y-42781155D01*
X133948285Y-42712202D01*
X133941354Y-42691100D01*
X133910451Y-42674068D01*
X133842104Y-42663284D01*
X133750758Y-42658737D01*
X133650855Y-42660414D01*
X133556839Y-42668300D01*
X133483153Y-42682382D01*
X133458838Y-42691544D01*
X133402930Y-42735840D01*
X133349561Y-42802078D01*
X133343284Y-42812329D01*
X133312045Y-42873806D01*
X133305864Y-42924018D01*
X132970583Y-42924018D01*
X132886427Y-42697633D01*
X132731775Y-42689960D01*
X132577122Y-42682286D01*
X132416236Y-43115203D01*
X132364258Y-43255739D01*
X132319272Y-43378651D01*
X132284202Y-43475847D01*
X132261972Y-43539233D01*
X132255350Y-43560582D01*
X132050808Y-43560582D01*
X132078961Y-43550732D01*
X132113758Y-43534625D01*
X132134999Y-43512552D01*
X132146027Y-43472812D01*
X132150187Y-43403703D01*
X132150823Y-43299309D01*
X132150823Y-43076543D01*
X131784980Y-43076543D01*
X131784980Y-43153120D01*
X131794803Y-43211534D01*
X131831468Y-43235804D01*
X131843776Y-43238048D01*
X131888350Y-43258322D01*
X131908415Y-43311679D01*
X131910694Y-43330430D01*
X131909772Y-43391252D01*
X131883774Y-43420758D01*
X131853286Y-43430909D01*
X131757794Y-43433017D01*
X131661347Y-43400939D01*
X131584944Y-43343342D01*
X131562406Y-43310849D01*
X131536251Y-43227929D01*
X131524981Y-43123746D01*
X131529352Y-43021724D01*
X131550121Y-42945285D01*
X131550569Y-42944437D01*
X131615690Y-42875463D01*
X131716715Y-42834201D01*
X131844212Y-42822367D01*
X131988748Y-42841673D01*
X132039764Y-42855534D01*
X132080460Y-42861852D01*
X132096269Y-42837709D01*
X132098560Y-42791495D01*
X132086424Y-42731878D01*
X132045934Y-42691692D01*
X131970965Y-42668705D01*
X131855393Y-42660681D01*
X131745782Y-42662824D01*
X131588557Y-42679999D01*
X131471233Y-42720001D01*
X131384523Y-42787999D01*
X131319141Y-42889159D01*
X131312138Y-42904102D01*
X131275393Y-43031814D01*
X131269809Y-43170846D01*
X127238066Y-43170846D01*
X127238066Y-43002959D01*
X127237620Y-42771099D01*
X127236972Y-42657141D01*
X127236958Y-42654675D01*
X127236349Y-42547730D01*
X127234357Y-42340159D01*
X127231747Y-42155694D01*
X127228623Y-42001642D01*
X127225087Y-41885311D01*
X127221282Y-41814466D01*
X127204497Y-41615904D01*
X127077189Y-41588601D01*
X126979020Y-41563553D01*
X126884965Y-41533363D01*
X126858237Y-41523007D01*
X126753420Y-41466159D01*
X126633950Y-41381579D01*
X126516834Y-41283121D01*
X126419080Y-41184635D01*
X126376155Y-41130364D01*
X126297326Y-41015789D01*
X126297326Y-40487491D01*
X126796412Y-40487491D01*
X126799491Y-40621588D01*
X126834250Y-40750896D01*
X126899771Y-40864592D01*
X126995140Y-40951854D01*
X127055682Y-40982976D01*
X127159197Y-41006835D01*
X127281619Y-41010188D01*
X127400320Y-40994256D01*
X127492673Y-40960261D01*
X127494276Y-40959295D01*
X127565226Y-40893512D01*
X127630835Y-40794541D01*
X127681304Y-40681268D01*
X127706835Y-40572578D01*
X127708181Y-40547004D01*
X127685372Y-40427311D01*
X127623716Y-40307010D01*
X127534389Y-40200634D01*
X127428566Y-40122715D01*
X127360922Y-40095430D01*
X127235005Y-40080642D01*
X127106965Y-40107302D01*
X126986413Y-40164688D01*
X126888957Y-40248219D01*
X126825929Y-40359427D01*
X126796412Y-40487491D01*
X126297326Y-40487491D01*
X126297326Y-40081568D01*
X126443645Y-39904178D01*
X126524381Y-39811621D01*
X126597595Y-39744100D01*
X126681086Y-39687945D01*
X126792654Y-39629486D01*
X126816021Y-39618178D01*
X126926305Y-39566795D01*
X127008998Y-39534908D01*
X127082937Y-39518017D01*
X127166959Y-39511620D01*
X127264198Y-39511098D01*
X127382355Y-39514266D01*
X127471121Y-39525351D01*
X127553303Y-39549625D01*
X127651707Y-39592365D01*
X127685760Y-39608594D01*
X127891863Y-39736199D01*
X128066071Y-39903479D01*
X128202990Y-40105061D01*
X128222619Y-40143267D01*
X128257459Y-40219732D01*
X128279290Y-40287716D01*
X128291069Y-40363720D01*
X128295755Y-40464246D01*
X128296400Y-40554835D01*
X128292125Y-40717818D01*
X128275905Y-40845226D01*
X128242648Y-40953296D01*
X128187261Y-41058266D01*
X128104652Y-41176374D01*
X128099199Y-41183599D01*
X127972894Y-41350470D01*
X128120264Y-41481819D01*
X128267635Y-41613168D01*
X136879342Y-41610956D01*
X145491050Y-41608744D01*
X145578535Y-41506954D01*
X145666021Y-41405163D01*
X145531572Y-41254382D01*
X145452740Y-41156822D01*
X145378074Y-41049163D01*
X145326494Y-40959876D01*
X145292990Y-40885666D01*
X145272032Y-40817910D01*
X145260777Y-40740319D01*
X145256386Y-40636602D01*
X145255865Y-40554835D01*
X145256385Y-40491183D01*
X145853115Y-40491183D01*
X145862233Y-40642649D01*
X145922880Y-40801997D01*
X145928878Y-40813136D01*
X146012397Y-40914751D01*
X146126142Y-40982271D01*
X146258588Y-41013038D01*
X146398208Y-41004393D01*
X146533478Y-40953679D01*
X146534861Y-40952899D01*
X146642067Y-40867671D01*
X146711606Y-40752252D01*
X146746624Y-40601089D01*
X146749149Y-40574287D01*
X146743046Y-40426466D01*
X146696270Y-40306808D01*
X146605022Y-40208783D01*
X146497120Y-40141384D01*
X146346703Y-40088018D01*
X146206427Y-40085183D01*
X146080304Y-40131508D01*
X145972347Y-40225622D01*
X145895483Y-40347036D01*
X145853115Y-40491183D01*
X145256385Y-40491183D01*
X145256859Y-40433061D01*
X145262346Y-40346613D01*
X145276086Y-40278558D01*
X145301836Y-40211965D01*
X145343355Y-40129900D01*
X145355066Y-40107924D01*
X145423896Y-39992767D01*
X145507185Y-39872546D01*
X145583085Y-39777802D01*
X145711901Y-39633273D01*
X145673452Y-39485657D01*
X145604143Y-39258492D01*
X145508074Y-39001441D01*
X145390231Y-38726137D01*
X145255598Y-38444209D01*
X145109163Y-38167290D01*
X145105595Y-38160891D01*
X144950051Y-37911406D01*
X144756301Y-37647464D01*
X144532872Y-37378011D01*
X144288288Y-37111993D01*
X144031075Y-36858356D01*
X143769757Y-36626047D01*
X143512861Y-36424012D01*
X143332969Y-36300752D01*
X142901912Y-36045611D01*
X142480662Y-35836860D01*
X142061335Y-35671710D01*
X141636050Y-35547372D01*
X141196928Y-35461057D01*
X140839609Y-35418321D01*
X140730242Y-35411522D01*
X140594192Y-35407519D01*
X140440353Y-35406093D01*
X140277620Y-35407025D01*
X140114888Y-35410096D01*
X139961050Y-35415087D01*
X139825003Y-35421778D01*
X139715639Y-35429952D01*
X139641854Y-35439389D01*
X139613470Y-35448511D01*
X139613893Y-35477030D01*
X139623797Y-35544627D01*
X139641287Y-35639366D01*
X139652528Y-35694341D01*
X139708113Y-36029790D01*
X139740792Y-36390093D01*
X139750320Y-36758833D01*
X139736449Y-37119595D01*
X139698933Y-37455964D01*
X139680577Y-37562757D01*
X139607893Y-37865117D01*
X139503469Y-38185229D01*
X139373137Y-38510238D01*
X139222729Y-38827291D01*
X139058079Y-39123532D01*
X138885017Y-39386109D01*
X138806498Y-39489177D01*
X138670322Y-39646782D01*
X138506934Y-39816464D01*
X138328770Y-39986664D01*
X138148261Y-40145816D01*
X137977843Y-40282360D01*
X137873663Y-40356664D01*
X137711825Y-40456957D01*
X137516455Y-40566053D01*
X137303506Y-40675950D01*
X137088935Y-40778646D01*
X136888695Y-40866138D01*
X136754181Y-40918160D01*
X136653328Y-40949669D01*
X136518195Y-40985691D01*
X136366014Y-41021909D01*
X136214016Y-41054003D01*
X136205416Y-41055677D01*
X136066084Y-41081367D01*
X135945366Y-41099833D01*
X135829329Y-41112185D01*
X135704040Y-41119531D01*
X135555567Y-41122981D01*
X135369977Y-41123644D01*
X135351955Y-41123607D01*
X135161377Y-41122181D01*
X135011406Y-41118303D01*
X134890407Y-41111061D01*
X134786746Y-41099544D01*
X134688790Y-41082841D01*
X134607202Y-41065243D01*
X134469949Y-41033434D01*
X134375646Y-41010798D01*
X134316270Y-40994958D01*
X134283800Y-40983537D01*
X134270214Y-40974157D01*
X134267490Y-40964567D01*
X134285265Y-40942702D01*
X134336006Y-40887782D01*
X134415835Y-40803822D01*
X134520876Y-40694837D01*
X134647252Y-40564841D01*
X134791086Y-40417848D01*
X134948502Y-40257874D01*
X135012983Y-40192585D01*
X135758476Y-39438522D01*
X136057452Y-39337547D01*
X136380672Y-39213909D01*
X136689294Y-39067974D01*
X136932922Y-38928539D01*
X137006703Y-38876770D01*
X137716873Y-38876770D01*
X137732020Y-39030365D01*
X137781031Y-39151425D01*
X137869255Y-39247388D01*
X138002045Y-39325691D01*
X138056585Y-39348934D01*
X138103353Y-39356334D01*
X138181921Y-39358788D01*
X138243485Y-39357160D01*
X138353824Y-39343476D01*
X138437878Y-39310205D01*
X138483381Y-39279492D01*
X138594326Y-39179309D01*
X138662719Y-39074245D01*
X138697107Y-38948458D01*
X138704372Y-38869926D01*
X138698671Y-38720761D01*
X138660123Y-38603469D01*
X138582208Y-38504774D01*
X138489138Y-38431635D01*
X138345683Y-38363486D01*
X138193797Y-38343838D01*
X138042453Y-38371914D01*
X137900624Y-38446934D01*
X137851782Y-38486955D01*
X137771471Y-38595486D01*
X137726892Y-38741961D01*
X137716873Y-38876770D01*
X137006703Y-38876770D01*
X137064253Y-38836390D01*
X137192259Y-38726031D01*
X137321624Y-38592050D01*
X137457034Y-38429036D01*
X137603175Y-38231579D01*
X137764731Y-37994267D01*
X137834464Y-37887367D01*
X137931022Y-37731903D01*
X138033994Y-37555706D01*
X138139590Y-37366264D01*
X138244023Y-37171063D01*
X138343501Y-36977589D01*
X138434237Y-36793330D01*
X138512441Y-36625771D01*
X138574324Y-36482399D01*
X138616097Y-36370701D01*
X138632100Y-36311402D01*
X138639279Y-36245594D01*
X138645678Y-36136758D01*
X138650995Y-35994126D01*
X138654932Y-35826930D01*
X138657189Y-35644403D01*
X138657614Y-35524752D01*
X138658285Y-35336047D01*
X138660168Y-35155673D01*
X138661957Y-35055454D01*
X142317184Y-35055454D01*
X142323045Y-35106634D01*
X142341560Y-35139207D01*
X142373704Y-35161403D01*
X142420455Y-35181452D01*
X142421984Y-35182063D01*
X142492195Y-35205971D01*
X142537713Y-35204725D01*
X142566643Y-35171021D01*
X142587091Y-35097558D01*
X142600240Y-35021450D01*
X142634688Y-34790019D01*
X142657410Y-34601781D01*
X142669048Y-34449151D01*
X142670243Y-34324542D01*
X142665401Y-34251773D01*
X142653743Y-34169815D01*
X142639698Y-34115867D01*
X142627229Y-34101792D01*
X142615777Y-34133901D01*
X142619718Y-34151367D01*
X142618592Y-34212018D01*
X142579842Y-34267120D01*
X142516742Y-34299269D01*
X142505515Y-34301092D01*
X142478042Y-34305635D01*
X142457159Y-34317128D01*
X142440213Y-34343293D01*
X142424552Y-34391852D01*
X142407524Y-34470527D01*
X142386477Y-34587038D01*
X142365764Y-34707977D01*
X142339519Y-34864355D01*
X142323000Y-34977437D01*
X142317184Y-35055454D01*
X138661957Y-35055454D01*
X138663069Y-34993143D01*
X138666792Y-34857969D01*
X138671143Y-34759665D01*
X138674061Y-34721499D01*
X138690508Y-34564138D01*
X138881402Y-34652336D01*
X138975851Y-34693879D01*
X139055009Y-34724895D01*
X139104669Y-34739917D01*
X139110526Y-34740535D01*
X139140869Y-34720681D01*
X139205087Y-34661175D01*
X139303105Y-34562096D01*
X139434848Y-34423525D01*
X139600239Y-34245543D01*
X139799203Y-34028230D01*
X140031665Y-33771667D01*
X140277778Y-33497988D01*
X140446503Y-33308122D01*
X140582365Y-33151114D01*
X140688930Y-33022344D01*
X140769761Y-32917195D01*
X140828424Y-32831046D01*
X140868481Y-32759278D01*
X140891942Y-32702055D01*
X140907979Y-32643330D01*
X140931934Y-32541860D01*
X140961938Y-32406238D01*
X140996122Y-32245057D01*
X141032618Y-32066912D01*
X141059832Y-31930134D01*
X141099046Y-31728973D01*
X141128517Y-31572931D01*
X141149016Y-31455930D01*
X141161309Y-31371892D01*
X141166167Y-31314741D01*
X141164357Y-31278398D01*
X141156648Y-31256788D01*
X141146391Y-31245740D01*
X141105651Y-31223697D01*
X141023624Y-31186881D01*
X140908134Y-31138385D01*
X140767008Y-31081305D01*
X140608070Y-31018735D01*
X140439148Y-30953770D01*
X140268067Y-30889504D01*
X140102652Y-30829032D01*
X140003395Y-30793757D01*
X139855310Y-30740648D01*
X139680045Y-30675963D01*
X139498898Y-30607652D01*
X139333168Y-30543670D01*
X139323972Y-30540061D01*
X139152238Y-30474082D01*
X138956327Y-30401182D01*
X138760564Y-30330294D01*
X138591776Y-30271204D01*
X138438152Y-30217591D01*
X138279817Y-30160379D01*
X138133998Y-30105910D01*
X138017926Y-30060524D01*
X138003813Y-30054755D01*
X137909556Y-30017381D01*
X137788530Y-29971566D01*
X137649526Y-29920405D01*
X137501334Y-29866990D01*
X137352746Y-29814413D01*
X137212551Y-29765767D01*
X137089540Y-29724145D01*
X136992505Y-29692639D01*
X136930235Y-29674342D01*
X136912972Y-29670987D01*
X136882085Y-29689578D01*
X136824534Y-29740351D01*
X136747669Y-29815808D01*
X136658840Y-29908453D01*
X136565396Y-30010787D01*
X136474689Y-30115312D01*
X136458740Y-30134356D01*
X136344959Y-30271079D01*
X135417752Y-30271548D01*
X134490544Y-30272016D01*
X134235074Y-30526528D01*
X134125701Y-30633236D01*
X134046236Y-30704935D01*
X133991698Y-30745527D01*
X133957108Y-30758918D01*
X133943367Y-30755180D01*
X133911018Y-30729097D01*
X133847787Y-30675761D01*
X133762102Y-30602356D01*
X133662390Y-30516069D01*
X133637188Y-30494135D01*
X133367245Y-30258950D01*
X132634909Y-30251304D01*
X131902572Y-30243657D01*
X131602058Y-29929765D01*
X131301544Y-29615872D01*
X130256276Y-29972444D01*
X130007774Y-30057529D01*
X129752928Y-30145359D01*
X129500868Y-30232748D01*
X129260723Y-30316511D01*
X129041620Y-30393463D01*
X128852688Y-30460418D01*
X128703056Y-30514191D01*
X128688375Y-30519534D01*
X128491933Y-30590151D01*
X128273533Y-30667015D01*
X128051783Y-30743681D01*
X127845292Y-30813705D01*
X127701904Y-30861160D01*
X127527824Y-30919091D01*
X127399278Y-30964918D01*
X127311475Y-31000639D01*
X127259624Y-31028252D01*
X127238933Y-31049757D01*
X127238066Y-31054603D01*
X127242008Y-31096394D01*
X127252939Y-31180978D01*
X127269519Y-31299553D01*
X127290406Y-31443316D01*
X127314259Y-31603465D01*
X127339737Y-31771199D01*
X127365499Y-31937714D01*
X127390204Y-32094209D01*
X127412511Y-32231880D01*
X127431078Y-32341927D01*
X127444565Y-32415547D01*
X127447671Y-32430339D01*
X127460863Y-32477552D01*
X127481435Y-32528559D01*
X127512202Y-32587179D01*
X127555977Y-32657233D01*
X127615576Y-32742542D01*
X127693814Y-32846925D01*
X127793506Y-32974203D01*
X127917465Y-33128196D01*
X128068508Y-33312725D01*
X128249448Y-33531609D01*
X128335076Y-33634753D01*
X128524709Y-33861727D01*
X128684227Y-34049841D01*
X128815716Y-34201403D01*
X128921259Y-34318720D01*
X129002942Y-34404098D01*
X129062849Y-34459845D01*
X129103064Y-34488268D01*
X129108609Y-34490753D01*
X129138256Y-34499192D01*
X129169423Y-34497719D01*
X129208171Y-34482384D01*
X129260563Y-34449236D01*
X129332660Y-34394322D01*
X129430527Y-34313691D01*
X129560223Y-34203393D01*
X129594308Y-34174171D01*
X129711868Y-34070276D01*
X129808313Y-33975573D01*
X129887727Y-33882268D01*
X129954194Y-33782566D01*
X130011798Y-33668671D01*
X130064623Y-33532788D01*
X130116754Y-33367121D01*
X130172273Y-33163875D01*
X130218362Y-32983015D01*
X130247189Y-32870069D01*
X130287469Y-32715348D01*
X130337315Y-32525875D01*
X130394841Y-32308673D01*
X130458159Y-32070767D01*
X130525383Y-31819179D01*
X130594626Y-31560935D01*
X130664001Y-31303056D01*
X130731621Y-31052568D01*
X130795599Y-30816494D01*
X130854050Y-30601857D01*
X130905084Y-30415681D01*
X130946817Y-30264990D01*
X130977361Y-30156808D01*
X130980686Y-30145283D01*
X131012602Y-30043614D01*
X131041230Y-29979814D01*
X131074515Y-29940709D01*
X131120402Y-29913127D01*
X131120827Y-29912924D01*
X131187784Y-29889669D01*
X131239652Y-29886141D01*
X131243797Y-29887387D01*
X131272809Y-29912918D01*
X131325554Y-29972629D01*
X131395194Y-30058312D01*
X131474892Y-30161757D01*
X131497204Y-30191608D01*
X131712146Y-30481070D01*
X132279907Y-30481070D01*
X132446813Y-30481651D01*
X132595525Y-30483277D01*
X132718304Y-30485772D01*
X132807411Y-30488960D01*
X132855105Y-30492667D01*
X132860861Y-30494262D01*
X132864594Y-30525217D01*
X132860639Y-30591711D01*
X132852777Y-30657585D01*
X132844248Y-30719376D01*
X132829834Y-30825645D01*
X132810518Y-30969061D01*
X132787285Y-31142291D01*
X132761119Y-31338004D01*
X132733003Y-31548869D01*
X132713402Y-31696193D01*
X132659318Y-32102761D01*
X132611423Y-32462034D01*
X132569094Y-32778533D01*
X132531708Y-33056783D01*
X132498644Y-33301303D01*
X132469278Y-33516618D01*
X132442988Y-33707249D01*
X132419152Y-33877719D01*
X132397147Y-34032550D01*
X132376350Y-34176265D01*
X132356139Y-34313385D01*
X132335891Y-34448433D01*
X132321303Y-34544547D01*
X132295115Y-34718697D01*
X132271826Y-34878081D01*
X132252565Y-35014587D01*
X132238465Y-35120102D01*
X132230656Y-35186513D01*
X132229452Y-35203355D01*
X132213437Y-35252497D01*
X132171796Y-35324525D01*
X132117037Y-35399343D01*
X132039943Y-35496399D01*
X131953232Y-35608621D01*
X131888641Y-35694341D01*
X131816937Y-35789709D01*
X131728669Y-35905150D01*
X131639800Y-36019828D01*
X131615380Y-36051005D01*
X131508251Y-36188606D01*
X131400210Y-36330195D01*
X131283213Y-36486483D01*
X131149214Y-36668181D01*
X131053986Y-36798405D01*
X130984340Y-36888837D01*
X130922074Y-36960600D01*
X130875503Y-37004589D01*
X130857089Y-37013991D01*
X130826306Y-36997843D01*
X130781401Y-36947377D01*
X130720296Y-36859563D01*
X130640911Y-36731370D01*
X130541170Y-36559767D01*
X130519832Y-36522156D01*
X130396854Y-36304703D01*
X130374826Y-35337872D01*
X130369439Y-35118180D01*
X130363726Y-34915197D01*
X130358785Y-34761934D01*
X130426132Y-34761934D01*
X130439856Y-34795675D01*
X130475316Y-34856880D01*
X130511060Y-34911771D01*
X130601228Y-35020765D01*
X130701882Y-35089496D01*
X130826112Y-35124466D01*
X130955475Y-35132510D01*
X131052044Y-35130721D01*
X131116223Y-35120507D01*
X131167873Y-35094598D01*
X131226856Y-35045725D01*
X131249691Y-35024814D01*
X131383376Y-34880390D01*
X131472354Y-34732381D01*
X131495291Y-34674914D01*
X131522635Y-34596810D01*
X131464353Y-34675205D01*
X131328473Y-34839037D01*
X131200016Y-34953310D01*
X131075876Y-35019655D01*
X130952946Y-35039704D01*
X130828119Y-35015090D01*
X130821850Y-35012745D01*
X130736958Y-34972827D01*
X130664315Y-34926229D01*
X130644888Y-34909402D01*
X130582220Y-34852466D01*
X130517887Y-34802803D01*
X130463526Y-34768255D01*
X130430771Y-34756668D01*
X130426132Y-34761934D01*
X130358785Y-34761934D01*
X130357910Y-34734793D01*
X130352211Y-34582837D01*
X130349571Y-34524895D01*
X130446067Y-34524895D01*
X130484440Y-34545103D01*
X130550451Y-34555583D01*
X130632028Y-34555019D01*
X130717100Y-34542094D01*
X130758343Y-34530180D01*
X130832079Y-34483939D01*
X130876926Y-34403547D01*
X130895596Y-34283339D01*
X130896502Y-34241615D01*
X130890121Y-34150091D01*
X130866050Y-34087604D01*
X130831348Y-34045844D01*
X130779755Y-34003482D01*
X130738348Y-33998340D01*
X130714818Y-34008185D01*
X130638072Y-34072482D01*
X130567998Y-34172531D01*
X130515198Y-34291969D01*
X130502721Y-34335493D01*
X130479957Y-34416594D01*
X130457376Y-34478004D01*
X130447402Y-34496275D01*
X130446067Y-34524895D01*
X130349571Y-34524895D01*
X130346851Y-34465199D01*
X130342050Y-34387748D01*
X130338030Y-34356353D01*
X130337833Y-34356076D01*
X130308645Y-34358018D01*
X130282408Y-34374691D01*
X130241119Y-34399235D01*
X130226235Y-34384534D01*
X130235897Y-34335305D01*
X130268245Y-34256263D01*
X130321421Y-34152125D01*
X130393563Y-34027606D01*
X130462124Y-33918879D01*
X130566659Y-33773662D01*
X130831173Y-33773662D01*
X130843628Y-33790216D01*
X130900621Y-33798922D01*
X130935455Y-33799794D01*
X131078030Y-33819695D01*
X131197502Y-33883081D01*
X131260368Y-33941035D01*
X131312295Y-33993193D01*
X131332500Y-34004063D01*
X131321511Y-33973486D01*
X131297059Y-33929897D01*
X131243377Y-33868276D01*
X131166945Y-33811781D01*
X131143607Y-33799239D01*
X131056057Y-33767357D01*
X130965028Y-33750474D01*
X130886618Y-33749908D01*
X130836926Y-33766977D01*
X130831173Y-33773662D01*
X130566659Y-33773662D01*
X130567334Y-33772725D01*
X130668343Y-33669515D01*
X130775698Y-33602052D01*
X130899947Y-33563142D01*
X131004518Y-33548875D01*
X131108269Y-33543837D01*
X131184737Y-33552944D01*
X131257891Y-33580115D01*
X131288478Y-33595304D01*
X131395198Y-33673336D01*
X131490532Y-33783731D01*
X131561010Y-33908239D01*
X131590152Y-34003956D01*
X131603085Y-34075501D01*
X131614063Y-34125865D01*
X131615327Y-34130333D01*
X131642958Y-34143093D01*
X131709689Y-34156397D01*
X131802385Y-34169051D01*
X131907911Y-34179862D01*
X132013131Y-34187638D01*
X132104911Y-34191186D01*
X132170117Y-34189312D01*
X132194496Y-34182938D01*
X132197898Y-34153547D01*
X132199068Y-34079527D01*
X132198102Y-33968463D01*
X132195096Y-33827938D01*
X132190146Y-33665534D01*
X132186808Y-33574261D01*
X132163889Y-32980815D01*
X132098560Y-32961535D01*
X132050296Y-32947172D01*
X131963158Y-32921130D01*
X131848326Y-32886754D01*
X131716984Y-32847390D01*
X131676754Y-32835324D01*
X131545630Y-32796792D01*
X131430422Y-32764429D01*
X131341336Y-32740993D01*
X131288578Y-32729240D01*
X131280802Y-32728395D01*
X131245451Y-32750576D01*
X131214948Y-32804087D01*
X131214405Y-32805623D01*
X131179072Y-32880171D01*
X131120796Y-32977459D01*
X131050913Y-33080774D01*
X130980760Y-33173406D01*
X130921673Y-33238643D01*
X130919012Y-33241066D01*
X130850429Y-33287338D01*
X130786487Y-33313164D01*
X130735154Y-33334832D01*
X130654582Y-33379493D01*
X130555238Y-33440178D01*
X130447586Y-33509918D01*
X130342094Y-33581744D01*
X130249227Y-33648688D01*
X130179453Y-33703782D01*
X130143237Y-33740057D01*
X130141876Y-33742358D01*
X130137238Y-33777559D01*
X130133674Y-33860478D01*
X130131208Y-33986579D01*
X130129861Y-34151326D01*
X130129657Y-34350184D01*
X130130618Y-34578617D01*
X130132767Y-34832091D01*
X130135322Y-35047191D01*
X130152091Y-36307655D01*
X130347908Y-36688308D01*
X130422606Y-36829515D01*
X130498293Y-36965621D01*
X130568062Y-37084672D01*
X130625008Y-37174713D01*
X130646272Y-37204799D01*
X130748820Y-37340637D01*
X130620141Y-37980864D01*
X130578259Y-38192387D01*
X130546431Y-38362178D01*
X130523391Y-38499530D01*
X130507874Y-38613734D01*
X130498614Y-38714081D01*
X130494345Y-38809863D01*
X130493787Y-38908539D01*
X130496828Y-39048775D01*
X130505171Y-39154751D01*
X130521613Y-39244412D01*
X130548953Y-39335700D01*
X130569093Y-39391617D01*
X130606459Y-39489261D01*
X130639723Y-39566389D01*
X130676339Y-39636246D01*
X130723757Y-39712083D01*
X130789430Y-39807145D01*
X130852257Y-39895010D01*
X130979091Y-40071399D01*
X134332819Y-40067851D01*
X134692731Y-39684182D01*
X134786500Y-39585309D01*
X134911490Y-39455174D01*
X135062061Y-39299565D01*
X135232574Y-39124271D01*
X135417387Y-38935080D01*
X135610860Y-38737781D01*
X135807354Y-38538161D01*
X135960118Y-38383529D01*
X136175376Y-38166510D01*
X136357403Y-37984208D01*
X136509269Y-37833740D01*
X136634041Y-37712221D01*
X136734791Y-37616768D01*
X136814586Y-37544499D01*
X136876496Y-37492530D01*
X136923591Y-37457977D01*
X136958939Y-37437957D01*
X136972120Y-37432828D01*
X137047952Y-37404734D01*
X137149745Y-37362329D01*
X137256561Y-37314367D01*
X137265389Y-37310226D01*
X137371607Y-37255933D01*
X137447489Y-37202855D01*
X137512122Y-37135210D01*
X137569356Y-37058869D01*
X137691350Y-36870983D01*
X137789133Y-36681668D01*
X137867408Y-36478547D01*
X137930880Y-36249242D01*
X137984253Y-35981375D01*
X137988604Y-35955658D01*
X138008623Y-35820979D01*
X138025916Y-35678087D01*
X138037263Y-35554135D01*
X138038499Y-35534651D01*
X138049087Y-35348828D01*
X137941776Y-35357719D01*
X137772211Y-35372281D01*
X137647233Y-35384476D01*
X137559281Y-35395381D01*
X137500790Y-35406069D01*
X137464200Y-35417617D01*
X137445474Y-35428302D01*
X137425069Y-35464046D01*
X137394680Y-35545604D01*
X137355932Y-35667835D01*
X137310453Y-35825597D01*
X137259869Y-36013745D01*
X137257982Y-36020987D01*
X137214077Y-36185868D01*
X137172654Y-36334385D01*
X137136024Y-36458804D01*
X137106496Y-36551390D01*
X137086379Y-36604406D01*
X137081128Y-36613183D01*
X137043874Y-36633412D01*
X136965187Y-36665089D01*
X136853474Y-36705571D01*
X136717144Y-36752215D01*
X136564604Y-36802378D01*
X136404261Y-36853416D01*
X136244524Y-36902688D01*
X136093798Y-36947549D01*
X135960493Y-36985357D01*
X135853016Y-37013469D01*
X135779774Y-37029241D01*
X135751446Y-37031190D01*
X135715340Y-37008900D01*
X135645074Y-36953058D01*
X135543895Y-36866613D01*
X135415048Y-36752512D01*
X135261780Y-36613705D01*
X135087337Y-36453140D01*
X134894964Y-36273765D01*
X134687907Y-36078529D01*
X134469413Y-35870381D01*
X134394981Y-35799004D01*
X134091300Y-35507306D01*
X134216382Y-34640850D01*
X135411505Y-34640850D01*
X135426758Y-34792519D01*
X135463706Y-34929353D01*
X135470666Y-34946396D01*
X135535694Y-35058249D01*
X135626927Y-35165155D01*
X135730155Y-35253221D01*
X135831169Y-35308551D01*
X135845935Y-35313367D01*
X135980423Y-35335807D01*
X136124886Y-35333424D01*
X136254954Y-35307344D01*
X136292696Y-35292767D01*
X136460941Y-35190370D01*
X136589724Y-35056484D01*
X136675926Y-34895420D01*
X136716425Y-34711488D01*
X136716810Y-34706830D01*
X136714505Y-34523139D01*
X136673958Y-34369074D01*
X136592687Y-34236144D01*
X136572205Y-34212319D01*
X136435385Y-34094952D01*
X136280760Y-34019700D01*
X136116645Y-33985361D01*
X135951357Y-33990733D01*
X135793213Y-34034613D01*
X135650527Y-34115799D01*
X135531618Y-34233089D01*
X135449160Y-34374691D01*
X135418717Y-34494768D01*
X135411505Y-34640850D01*
X134216382Y-34640850D01*
X134283518Y-34175790D01*
X134519001Y-34175790D01*
X134522155Y-34212125D01*
X134564206Y-34254401D01*
X134644670Y-34282590D01*
X134751275Y-34295358D01*
X134871749Y-34291374D01*
X134993823Y-34269304D01*
X135009211Y-34265024D01*
X135079235Y-34234378D01*
X135159071Y-34177614D01*
X135257204Y-34088231D01*
X135312758Y-34032386D01*
X135423386Y-33922545D01*
X135513537Y-33845050D01*
X135596171Y-33792077D01*
X135684243Y-33755800D01*
X135790711Y-33728395D01*
X135829192Y-33720534D01*
X136020877Y-33705284D01*
X136221725Y-33734284D01*
X136435158Y-33808556D01*
X136664597Y-33929120D01*
X136783821Y-34005350D01*
X136896511Y-34078154D01*
X137018188Y-34151971D01*
X137124337Y-34211977D01*
X137133684Y-34216925D01*
X137217773Y-34265521D01*
X137282928Y-34311434D01*
X137315046Y-34344725D01*
X137315048Y-34344730D01*
X137330497Y-34365405D01*
X137340929Y-34339877D01*
X137344615Y-34316507D01*
X137331903Y-34232752D01*
X137277139Y-34132987D01*
X137149526Y-33975908D01*
X136993118Y-33837113D01*
X136801278Y-33711962D01*
X136567372Y-33595814D01*
X136423678Y-33536162D01*
X136251416Y-33462619D01*
X136125567Y-33395042D01*
X136041013Y-33330681D01*
X136041010Y-33330677D01*
X135971976Y-33267020D01*
X135907612Y-33212991D01*
X135885577Y-33196556D01*
X135841829Y-33147765D01*
X135816809Y-33067981D01*
X135810889Y-33026700D01*
X135796090Y-32898251D01*
X135613220Y-32904789D01*
X135519807Y-32910720D01*
X135400019Y-32922001D01*
X135266314Y-32937025D01*
X135131148Y-32954183D01*
X135006978Y-32971868D01*
X134906261Y-32988472D01*
X134841453Y-33002387D01*
X134831005Y-33005747D01*
X134799431Y-33033515D01*
X134765929Y-33095896D01*
X134728792Y-33197397D01*
X134686313Y-33342524D01*
X134649045Y-33486214D01*
X134607194Y-33662166D01*
X134571826Y-33827328D01*
X134544379Y-33973471D01*
X134526291Y-34092368D01*
X134519001Y-34175790D01*
X134283518Y-34175790D01*
X134346485Y-33739608D01*
G37*
G36*
X130677828Y-30074773D02*
G01*
X130682625Y-30109570D01*
X130680321Y-30121759D01*
X130669629Y-30163877D01*
X130647310Y-30247954D01*
X130615636Y-30365569D01*
X130576878Y-30508297D01*
X130533307Y-30667718D01*
X130519990Y-30716255D01*
X130466934Y-30910426D01*
X130410122Y-31120001D01*
X130354109Y-31328063D01*
X130303451Y-31517698D01*
X130266631Y-31656995D01*
X130166195Y-32038440D01*
X130077286Y-32372579D01*
X129998823Y-32662825D01*
X129929724Y-32912594D01*
X129868907Y-33125297D01*
X129815291Y-33304350D01*
X129767793Y-33453166D01*
X129725332Y-33575158D01*
X129686826Y-33673740D01*
X129651194Y-33752326D01*
X129617353Y-33814330D01*
X129584222Y-33863165D01*
X129557381Y-33895177D01*
X129466788Y-33982885D01*
X129367884Y-34061742D01*
X129272871Y-34123425D01*
X129193954Y-34159610D01*
X129160808Y-34165637D01*
X129114963Y-34145838D01*
X129043279Y-34089795D01*
X128951976Y-34002539D01*
X128926571Y-33976183D01*
X128844770Y-33886260D01*
X128740400Y-33765881D01*
X128621217Y-33624549D01*
X128494975Y-33471764D01*
X128369430Y-33317027D01*
X128252337Y-33169841D01*
X128151449Y-33039705D01*
X128074522Y-32936123D01*
X128054880Y-32908172D01*
X128003729Y-32822744D01*
X127946857Y-32711034D01*
X127895913Y-32596051D01*
X127892313Y-32587073D01*
X127842338Y-32466776D01*
X127786849Y-32341554D01*
X127737597Y-32237899D01*
X127736220Y-32235164D01*
X127696738Y-32136997D01*
X127654278Y-31996409D01*
X127611106Y-31822978D01*
X127569491Y-31626283D01*
X127531700Y-31415902D01*
X127511916Y-31287854D01*
X127494419Y-31166964D01*
X127708129Y-31085356D01*
X127795091Y-31053160D01*
X127921303Y-31007798D01*
X128076520Y-30952885D01*
X128250497Y-30892032D01*
X128432988Y-30828854D01*
X128527227Y-30796494D01*
X128880128Y-30675482D01*
X129206265Y-30563256D01*
X129502647Y-30460856D01*
X129766282Y-30369328D01*
X129994180Y-30289715D01*
X130183350Y-30223060D01*
X130330801Y-30170406D01*
X130433541Y-30132797D01*
X130472830Y-30117749D01*
X130579150Y-30078983D01*
X130645410Y-30064618D01*
X130677828Y-30074773D01*
G37*
%LPC*%
M02*
