G04 #@! TF.GenerationSoftware,KiCad,Pcbnew,(6.0.11-0)*
G04 #@! TF.CreationDate,2023-03-27T18:46:33+02:00*
G04 #@! TF.ProjectId,Moog-Filter-Panel,4d6f6f67-2d46-4696-9c74-65722d50616e,rev?*
G04 #@! TF.SameCoordinates,Original*
G04 #@! TF.FileFunction,Legend,Bot*
G04 #@! TF.FilePolarity,Positive*
%FSLAX46Y46*%
G04 Gerber Fmt 4.6, Leading zero omitted, Abs format (unit mm)*
G04 Created by KiCad (PCBNEW (6.0.11-0)) date 2023-03-27 18:46:33*
%MOMM*%
%LPD*%
G01*
G04 APERTURE LIST*
%ADD10C,0.150000*%
G04 APERTURE END LIST*
D10*
X141619047Y-145552380D02*
X141619047Y-146266666D01*
X141666666Y-146409523D01*
X141761904Y-146504761D01*
X141904761Y-146552380D01*
X142000000Y-146552380D01*
X140666666Y-146552380D02*
X141142857Y-146552380D01*
X141142857Y-145552380D01*
X139761904Y-146457142D02*
X139809523Y-146504761D01*
X139952380Y-146552380D01*
X140047619Y-146552380D01*
X140190476Y-146504761D01*
X140285714Y-146409523D01*
X140333333Y-146314285D01*
X140380952Y-146123809D01*
X140380952Y-145980952D01*
X140333333Y-145790476D01*
X140285714Y-145695238D01*
X140190476Y-145600000D01*
X140047619Y-145552380D01*
X139952380Y-145552380D01*
X139809523Y-145600000D01*
X139761904Y-145647619D01*
X139047619Y-145552380D02*
X139047619Y-146266666D01*
X139095238Y-146409523D01*
X139190476Y-146504761D01*
X139333333Y-146552380D01*
X139428571Y-146552380D01*
X138095238Y-146552380D02*
X138571428Y-146552380D01*
X138571428Y-145552380D01*
X137190476Y-146457142D02*
X137238095Y-146504761D01*
X137380952Y-146552380D01*
X137476190Y-146552380D01*
X137619047Y-146504761D01*
X137714285Y-146409523D01*
X137761904Y-146314285D01*
X137809523Y-146123809D01*
X137809523Y-145980952D01*
X137761904Y-145790476D01*
X137714285Y-145695238D01*
X137619047Y-145600000D01*
X137476190Y-145552380D01*
X137380952Y-145552380D01*
X137238095Y-145600000D01*
X137190476Y-145647619D01*
X136476190Y-145552380D02*
X136476190Y-146266666D01*
X136523809Y-146409523D01*
X136619047Y-146504761D01*
X136761904Y-146552380D01*
X136857142Y-146552380D01*
X135523809Y-146552380D02*
X136000000Y-146552380D01*
X136000000Y-145552380D01*
X134619047Y-146457142D02*
X134666666Y-146504761D01*
X134809523Y-146552380D01*
X134904761Y-146552380D01*
X135047619Y-146504761D01*
X135142857Y-146409523D01*
X135190476Y-146314285D01*
X135238095Y-146123809D01*
X135238095Y-145980952D01*
X135190476Y-145790476D01*
X135142857Y-145695238D01*
X135047619Y-145600000D01*
X134904761Y-145552380D01*
X134809523Y-145552380D01*
X134666666Y-145600000D01*
X134619047Y-145647619D01*
X133904761Y-145552380D02*
X133904761Y-146266666D01*
X133952380Y-146409523D01*
X134047619Y-146504761D01*
X134190476Y-146552380D01*
X134285714Y-146552380D01*
X132952380Y-146552380D02*
X133428571Y-146552380D01*
X133428571Y-145552380D01*
X132047619Y-146457142D02*
X132095238Y-146504761D01*
X132238095Y-146552380D01*
X132333333Y-146552380D01*
X132476190Y-146504761D01*
X132571428Y-146409523D01*
X132619047Y-146314285D01*
X132666666Y-146123809D01*
X132666666Y-145980952D01*
X132619047Y-145790476D01*
X132571428Y-145695238D01*
X132476190Y-145600000D01*
X132333333Y-145552380D01*
X132238095Y-145552380D01*
X132095238Y-145600000D01*
X132047619Y-145647619D01*
%LPC*%
M02*
